G04 #@! TF.FileFunction,Soldermask,Top*
%FSLAX46Y46*%
G04 Gerber Fmt 4.6, Leading zero omitted, Abs format (unit mm)*
G04 Created by KiCad (PCBNEW 4.0.4-stable) date 07/15/17 23:55:16*
%MOMM*%
%LPD*%
G01*
G04 APERTURE LIST*
%ADD10C,0.100000*%
%ADD11C,2.000000*%
%ADD12R,2.200000X2.200000*%
%ADD13O,2.200000X2.200000*%
%ADD14R,2.100000X2.100000*%
%ADD15O,2.100000X2.100000*%
%ADD16R,2.800000X2.000000*%
%ADD17O,2.800000X2.000000*%
%ADD18O,2.000000X2.000000*%
G04 APERTURE END LIST*
D10*
D11*
X185013600Y-83108800D03*
X185013600Y-80608800D03*
X140106400Y-69900800D03*
X140106400Y-67400800D03*
X162814000Y-67310000D03*
X160314000Y-67310000D03*
D12*
X149479000Y-62306200D03*
D13*
X157099000Y-62306200D03*
D14*
X195757800Y-99034600D03*
D15*
X193217800Y-99034600D03*
X190677800Y-99034600D03*
X188137800Y-99034600D03*
X185597800Y-99034600D03*
D14*
X195656200Y-108788200D03*
D15*
X193116200Y-108788200D03*
X190576200Y-108788200D03*
X188036200Y-108788200D03*
X185496200Y-108788200D03*
D14*
X179984400Y-98983800D03*
D15*
X177444400Y-98983800D03*
X174904400Y-98983800D03*
X172364400Y-98983800D03*
X169824400Y-98983800D03*
X167284400Y-98983800D03*
X164744400Y-98983800D03*
X162204400Y-98983800D03*
X159664400Y-98983800D03*
D14*
X180111400Y-108788200D03*
D15*
X177571400Y-108788200D03*
X175031400Y-108788200D03*
X172491400Y-108788200D03*
X169951400Y-108788200D03*
X167411400Y-108788200D03*
X164871400Y-108788200D03*
X162331400Y-108788200D03*
X159791400Y-108788200D03*
D14*
X154584400Y-98958400D03*
D15*
X152044400Y-98958400D03*
X149504400Y-98958400D03*
X146964400Y-98958400D03*
X144424400Y-98958400D03*
X141884400Y-98958400D03*
D14*
X154559000Y-108788200D03*
D15*
X152019000Y-108788200D03*
X149479000Y-108788200D03*
X146939000Y-108788200D03*
X144399000Y-108788200D03*
X141859000Y-108788200D03*
D14*
X205232000Y-65430400D03*
D15*
X205232000Y-67970400D03*
X205232000Y-70510400D03*
X205232000Y-73050400D03*
X205232000Y-75590400D03*
X205232000Y-78130400D03*
X205232000Y-80670400D03*
X205232000Y-83210400D03*
X205232000Y-85750400D03*
X205232000Y-88290400D03*
X205232000Y-90830400D03*
X205232000Y-93370400D03*
X205232000Y-95910400D03*
D14*
X204597000Y-107365800D03*
D15*
X202057000Y-107365800D03*
D14*
X143713200Y-62433200D03*
D15*
X141173200Y-62433200D03*
D14*
X129235200Y-97129600D03*
D15*
X131775200Y-97129600D03*
D14*
X171856400Y-62509400D03*
D15*
X174396400Y-62509400D03*
D14*
X162509200Y-62407800D03*
D15*
X165049200Y-62407800D03*
D14*
X133451600Y-62585600D03*
D15*
X130911600Y-62585600D03*
D16*
X136906000Y-85394800D03*
D17*
X129286000Y-70154800D03*
X136906000Y-82854800D03*
X129286000Y-72694800D03*
X136906000Y-80314800D03*
X129286000Y-75234800D03*
X136906000Y-77774800D03*
X129286000Y-77774800D03*
X136906000Y-75234800D03*
X129286000Y-80314800D03*
X136906000Y-72694800D03*
X129286000Y-82854800D03*
X136906000Y-70154800D03*
X129286000Y-85394800D03*
D16*
X151307800Y-87934800D03*
D17*
X143687800Y-70154800D03*
X151307800Y-85394800D03*
X143687800Y-72694800D03*
X151307800Y-82854800D03*
X143687800Y-75234800D03*
X151307800Y-80314800D03*
X143687800Y-77774800D03*
X151307800Y-77774800D03*
X143687800Y-80314800D03*
X151307800Y-75234800D03*
X143687800Y-82854800D03*
X151307800Y-72694800D03*
X143687800Y-85394800D03*
X151307800Y-70154800D03*
X143687800Y-87934800D03*
D16*
X165455600Y-88112600D03*
D17*
X157835600Y-70332600D03*
X165455600Y-85572600D03*
X157835600Y-72872600D03*
X165455600Y-83032600D03*
X157835600Y-75412600D03*
X165455600Y-80492600D03*
X157835600Y-77952600D03*
X165455600Y-77952600D03*
X157835600Y-80492600D03*
X165455600Y-75412600D03*
X157835600Y-83032600D03*
X165455600Y-72872600D03*
X157835600Y-85572600D03*
X165455600Y-70332600D03*
X157835600Y-88112600D03*
D16*
X180568600Y-88188800D03*
D17*
X172948600Y-70408800D03*
X180568600Y-85648800D03*
X172948600Y-72948800D03*
X180568600Y-83108800D03*
X172948600Y-75488800D03*
X180568600Y-80568800D03*
X172948600Y-78028800D03*
X180568600Y-78028800D03*
X172948600Y-80568800D03*
X180568600Y-75488800D03*
X172948600Y-83108800D03*
X180568600Y-72948800D03*
X172948600Y-85648800D03*
X180568600Y-70408800D03*
X172948600Y-88188800D03*
D16*
X195834000Y-88265000D03*
D17*
X188214000Y-70485000D03*
X195834000Y-85725000D03*
X188214000Y-73025000D03*
X195834000Y-83185000D03*
X188214000Y-75565000D03*
X195834000Y-80645000D03*
X188214000Y-78105000D03*
X195834000Y-78105000D03*
X188214000Y-80645000D03*
X195834000Y-75565000D03*
X188214000Y-83185000D03*
X195834000Y-73025000D03*
X188214000Y-85725000D03*
X195834000Y-70485000D03*
X188214000Y-88265000D03*
D11*
X137642600Y-89179400D03*
D18*
X130022600Y-89179400D03*
D11*
X137744200Y-92989400D03*
D18*
X130124200Y-92989400D03*
M02*
