G04 #@! TF.FileFunction,Copper,L2,Bot,Signal*
%FSLAX46Y46*%
G04 Gerber Fmt 4.6, Leading zero omitted, Abs format (unit mm)*
G04 Created by KiCad (PCBNEW 4.0.4-stable) date 07/15/17 23:55:16*
%MOMM*%
%LPD*%
G01*
G04 APERTURE LIST*
%ADD10C,0.100000*%
%ADD11C,1.600000*%
%ADD12R,1.800000X1.800000*%
%ADD13O,1.800000X1.800000*%
%ADD14R,1.700000X1.700000*%
%ADD15O,1.700000X1.700000*%
%ADD16R,2.400000X1.600000*%
%ADD17O,2.400000X1.600000*%
%ADD18O,1.600000X1.600000*%
%ADD19C,0.600000*%
%ADD20C,0.750000*%
%ADD21C,0.400000*%
G04 APERTURE END LIST*
D10*
D11*
X185013600Y-83108800D03*
X185013600Y-80608800D03*
X140106400Y-69900800D03*
X140106400Y-67400800D03*
X162814000Y-67310000D03*
X160314000Y-67310000D03*
D12*
X149479000Y-62306200D03*
D13*
X157099000Y-62306200D03*
D14*
X195757800Y-99034600D03*
D15*
X193217800Y-99034600D03*
X190677800Y-99034600D03*
X188137800Y-99034600D03*
X185597800Y-99034600D03*
D14*
X195656200Y-108788200D03*
D15*
X193116200Y-108788200D03*
X190576200Y-108788200D03*
X188036200Y-108788200D03*
X185496200Y-108788200D03*
D14*
X179984400Y-98983800D03*
D15*
X177444400Y-98983800D03*
X174904400Y-98983800D03*
X172364400Y-98983800D03*
X169824400Y-98983800D03*
X167284400Y-98983800D03*
X164744400Y-98983800D03*
X162204400Y-98983800D03*
X159664400Y-98983800D03*
D14*
X180111400Y-108788200D03*
D15*
X177571400Y-108788200D03*
X175031400Y-108788200D03*
X172491400Y-108788200D03*
X169951400Y-108788200D03*
X167411400Y-108788200D03*
X164871400Y-108788200D03*
X162331400Y-108788200D03*
X159791400Y-108788200D03*
D14*
X154584400Y-98958400D03*
D15*
X152044400Y-98958400D03*
X149504400Y-98958400D03*
X146964400Y-98958400D03*
X144424400Y-98958400D03*
X141884400Y-98958400D03*
D14*
X154559000Y-108788200D03*
D15*
X152019000Y-108788200D03*
X149479000Y-108788200D03*
X146939000Y-108788200D03*
X144399000Y-108788200D03*
X141859000Y-108788200D03*
D14*
X205232000Y-65430400D03*
D15*
X205232000Y-67970400D03*
X205232000Y-70510400D03*
X205232000Y-73050400D03*
X205232000Y-75590400D03*
X205232000Y-78130400D03*
X205232000Y-80670400D03*
X205232000Y-83210400D03*
X205232000Y-85750400D03*
X205232000Y-88290400D03*
X205232000Y-90830400D03*
X205232000Y-93370400D03*
X205232000Y-95910400D03*
D14*
X204597000Y-107365800D03*
D15*
X202057000Y-107365800D03*
D14*
X143713200Y-62433200D03*
D15*
X141173200Y-62433200D03*
D14*
X129235200Y-97129600D03*
D15*
X131775200Y-97129600D03*
D14*
X171856400Y-62509400D03*
D15*
X174396400Y-62509400D03*
D14*
X162509200Y-62407800D03*
D15*
X165049200Y-62407800D03*
D14*
X133451600Y-62585600D03*
D15*
X130911600Y-62585600D03*
D16*
X136906000Y-85394800D03*
D17*
X129286000Y-70154800D03*
X136906000Y-82854800D03*
X129286000Y-72694800D03*
X136906000Y-80314800D03*
X129286000Y-75234800D03*
X136906000Y-77774800D03*
X129286000Y-77774800D03*
X136906000Y-75234800D03*
X129286000Y-80314800D03*
X136906000Y-72694800D03*
X129286000Y-82854800D03*
X136906000Y-70154800D03*
X129286000Y-85394800D03*
D16*
X151307800Y-87934800D03*
D17*
X143687800Y-70154800D03*
X151307800Y-85394800D03*
X143687800Y-72694800D03*
X151307800Y-82854800D03*
X143687800Y-75234800D03*
X151307800Y-80314800D03*
X143687800Y-77774800D03*
X151307800Y-77774800D03*
X143687800Y-80314800D03*
X151307800Y-75234800D03*
X143687800Y-82854800D03*
X151307800Y-72694800D03*
X143687800Y-85394800D03*
X151307800Y-70154800D03*
X143687800Y-87934800D03*
D16*
X165455600Y-88112600D03*
D17*
X157835600Y-70332600D03*
X165455600Y-85572600D03*
X157835600Y-72872600D03*
X165455600Y-83032600D03*
X157835600Y-75412600D03*
X165455600Y-80492600D03*
X157835600Y-77952600D03*
X165455600Y-77952600D03*
X157835600Y-80492600D03*
X165455600Y-75412600D03*
X157835600Y-83032600D03*
X165455600Y-72872600D03*
X157835600Y-85572600D03*
X165455600Y-70332600D03*
X157835600Y-88112600D03*
D16*
X180568600Y-88188800D03*
D17*
X172948600Y-70408800D03*
X180568600Y-85648800D03*
X172948600Y-72948800D03*
X180568600Y-83108800D03*
X172948600Y-75488800D03*
X180568600Y-80568800D03*
X172948600Y-78028800D03*
X180568600Y-78028800D03*
X172948600Y-80568800D03*
X180568600Y-75488800D03*
X172948600Y-83108800D03*
X180568600Y-72948800D03*
X172948600Y-85648800D03*
X180568600Y-70408800D03*
X172948600Y-88188800D03*
D16*
X195834000Y-88265000D03*
D17*
X188214000Y-70485000D03*
X195834000Y-85725000D03*
X188214000Y-73025000D03*
X195834000Y-83185000D03*
X188214000Y-75565000D03*
X195834000Y-80645000D03*
X188214000Y-78105000D03*
X195834000Y-78105000D03*
X188214000Y-80645000D03*
X195834000Y-75565000D03*
X188214000Y-83185000D03*
X195834000Y-73025000D03*
X188214000Y-85725000D03*
X195834000Y-70485000D03*
X188214000Y-88265000D03*
D11*
X137642600Y-89179400D03*
D18*
X130022600Y-89179400D03*
D11*
X137744200Y-92989400D03*
D18*
X130124200Y-92989400D03*
D19*
X174904400Y-67310000D03*
X158242000Y-96088200D03*
X157022800Y-93421200D03*
X149987000Y-95758000D03*
X146100800Y-103606600D03*
X193167000Y-78206600D03*
D20*
X130124200Y-92989400D02*
X127533400Y-92989400D01*
X127533400Y-92989400D02*
X127076200Y-92532200D01*
X129286000Y-85394800D02*
X127381000Y-85394800D01*
X127381000Y-85394800D02*
X127076200Y-85699600D01*
X127076200Y-85699600D02*
X127076200Y-92532200D01*
X127076200Y-92532200D02*
X127076200Y-94970600D01*
X127076200Y-94970600D02*
X129235200Y-97129600D01*
X172948600Y-88188800D02*
X172948600Y-90906600D01*
X172948600Y-90906600D02*
X172161200Y-91694000D01*
X143459200Y-91694000D02*
X143408400Y-91694000D01*
X135636000Y-97129600D02*
X129235200Y-97129600D01*
X143510000Y-91694000D02*
X143459200Y-91694000D01*
X143408400Y-91694000D02*
X137972800Y-97129600D01*
X137972800Y-97129600D02*
X135636000Y-97129600D01*
X176911000Y-69697600D02*
X176911000Y-69316600D01*
X176911000Y-69316600D02*
X174904400Y-67310000D01*
X180568600Y-83108800D02*
X178790600Y-83108800D01*
X176911000Y-81229200D02*
X176911000Y-69697600D01*
X178790600Y-83108800D02*
X176911000Y-81229200D01*
X140106400Y-69900800D02*
X140106400Y-73914000D01*
X138785600Y-75234800D02*
X136906000Y-75234800D01*
X140106400Y-73914000D02*
X138785600Y-75234800D01*
X127457200Y-80314800D02*
X129286000Y-80314800D01*
X127076200Y-80695800D02*
X127457200Y-80314800D01*
X127076200Y-85852000D02*
X127076200Y-85699600D01*
X127076200Y-85699600D02*
X127076200Y-80695800D01*
X170916600Y-91694000D02*
X172161200Y-91694000D01*
X172161200Y-91694000D02*
X186309000Y-91694000D01*
X188214000Y-89789000D02*
X188214000Y-88265000D01*
X186309000Y-91694000D02*
X188214000Y-89789000D01*
X180568600Y-83108800D02*
X183972200Y-83108800D01*
X183972200Y-83108800D02*
X185013600Y-83108800D01*
X143510000Y-91694000D02*
X143510000Y-88112600D01*
X143510000Y-88112600D02*
X143687800Y-87934800D01*
X157632400Y-91694000D02*
X157632400Y-88315800D01*
X157632400Y-88315800D02*
X157835600Y-88112600D01*
X172948600Y-88188800D02*
X172948600Y-89662000D01*
X170916600Y-91694000D02*
X157632400Y-91694000D01*
X157632400Y-91694000D02*
X143510000Y-91694000D01*
X176530000Y-65709800D02*
X170916600Y-65709800D01*
X170916600Y-65709800D02*
X170535600Y-66090800D01*
X143713200Y-62433200D02*
X143713200Y-65481200D01*
X143713200Y-65481200D02*
X141884400Y-67310000D01*
X140106400Y-67400800D02*
X141793600Y-67400800D01*
X141884400Y-67310000D02*
X151079200Y-67310000D01*
X141793600Y-67400800D02*
X141884400Y-67310000D01*
X136906000Y-70154800D02*
X136906000Y-68681600D01*
X138186800Y-67400800D02*
X140106400Y-67400800D01*
X136906000Y-68681600D02*
X138186800Y-67400800D01*
X188214000Y-80645000D02*
X185049800Y-80645000D01*
X185049800Y-80645000D02*
X185013600Y-80608800D01*
X195834000Y-70485000D02*
X195834000Y-68935600D01*
X195834000Y-68935600D02*
X192608200Y-65709800D01*
X174396400Y-62509400D02*
X174396400Y-63754000D01*
X176352200Y-65709800D02*
X176530000Y-65709800D01*
X176530000Y-65709800D02*
X180568600Y-65709800D01*
X174396400Y-63754000D02*
X176352200Y-65709800D01*
X151307800Y-70154800D02*
X151307800Y-67538600D01*
X151307800Y-67538600D02*
X151079200Y-67310000D01*
X185597800Y-65709800D02*
X192608200Y-65709800D01*
X180568600Y-65709800D02*
X185597800Y-65709800D01*
X185597800Y-65709800D02*
X185445400Y-65709800D01*
X185445400Y-65709800D02*
X185597800Y-65862200D01*
X180568600Y-65709800D02*
X180568600Y-65709800D01*
D21*
X175006000Y-85648800D02*
X175869600Y-85648800D01*
X183007000Y-85725000D02*
X184277000Y-85725000D01*
X181813200Y-86918800D02*
X183007000Y-85725000D01*
X177139600Y-86918800D02*
X181813200Y-86918800D01*
X175869600Y-85648800D02*
X177139600Y-86918800D01*
X157835600Y-85572600D02*
X155524200Y-85572600D01*
X148691600Y-85394800D02*
X143687800Y-85394800D01*
X149961600Y-86664800D02*
X148691600Y-85394800D01*
X154432000Y-86664800D02*
X149961600Y-86664800D01*
X155524200Y-85572600D02*
X154432000Y-86664800D01*
X172948600Y-85648800D02*
X170840400Y-85648800D01*
X162941000Y-85572600D02*
X157835600Y-85572600D01*
X164185600Y-86817200D02*
X162941000Y-85572600D01*
X169672000Y-86817200D02*
X164185600Y-86817200D01*
X170840400Y-85648800D02*
X169672000Y-86817200D01*
X188214000Y-85725000D02*
X184277000Y-85725000D01*
X175006000Y-85648800D02*
X172948600Y-85648800D01*
D20*
X188214000Y-80645000D02*
X189357000Y-80645000D01*
X189357000Y-80645000D02*
X190449200Y-81737200D01*
X189763400Y-85725000D02*
X188214000Y-85725000D01*
X190449200Y-85039200D02*
X189763400Y-85725000D01*
X190449200Y-81737200D02*
X190449200Y-85039200D01*
X152882600Y-67310000D02*
X151079200Y-67310000D01*
X152882600Y-67310000D02*
X160314000Y-67310000D01*
X160314000Y-67310000D02*
X160314000Y-68366000D01*
X162280600Y-70332600D02*
X165455600Y-70332600D01*
X160314000Y-68366000D02*
X162280600Y-70332600D01*
X151307800Y-70154800D02*
X151307800Y-68884800D01*
X185013600Y-80608800D02*
X184988200Y-74218800D01*
X184988200Y-74218800D02*
X185597800Y-73609200D01*
X165455600Y-70332600D02*
X166293800Y-70332600D01*
X166293800Y-70332600D02*
X170535600Y-66090800D01*
X170535600Y-66090800D02*
X171856400Y-64770000D01*
X171856400Y-64770000D02*
X171856400Y-62509400D01*
X171856400Y-62509400D02*
X174396400Y-62509400D01*
X180568600Y-70408800D02*
X180568600Y-65709800D01*
X188214000Y-73025000D02*
X186182000Y-73025000D01*
X186182000Y-73025000D02*
X185597800Y-73609200D01*
X185597800Y-73609200D02*
X185597800Y-65862200D01*
D21*
X165455600Y-83032600D02*
X168224200Y-83032600D01*
X171018200Y-75488800D02*
X172948600Y-75488800D01*
X169824400Y-76682600D02*
X171018200Y-75488800D01*
X169824400Y-81432400D02*
X169824400Y-76682600D01*
X168224200Y-83032600D02*
X169824400Y-81432400D01*
X157835600Y-80492600D02*
X160248600Y-80492600D01*
X160248600Y-80492600D02*
X162788600Y-77952600D01*
X162788600Y-77952600D02*
X165455600Y-77952600D01*
X156083000Y-75412600D02*
X155879800Y-75412600D01*
X157835600Y-75412600D02*
X156260800Y-75412600D01*
X156260800Y-75412600D02*
X156083000Y-75412600D01*
X154787600Y-76504800D02*
X154787600Y-81076800D01*
X155879800Y-75412600D02*
X154787600Y-76504800D01*
X152908000Y-82854800D02*
X153009600Y-82854800D01*
X153009600Y-82854800D02*
X154787600Y-81076800D01*
X162204400Y-97942400D02*
X162204400Y-98983800D01*
X160959800Y-96697800D02*
X162204400Y-97942400D01*
X158851600Y-96697800D02*
X160959800Y-96697800D01*
X158242000Y-96088200D02*
X158851600Y-96697800D01*
X151307800Y-82854800D02*
X152908000Y-82854800D01*
X157022800Y-93421200D02*
X157124400Y-93522800D01*
X157124400Y-93522800D02*
X157124400Y-106121200D01*
X157124400Y-106121200D02*
X159791400Y-108788200D01*
X143687800Y-80314800D02*
X146278600Y-80314800D01*
X148818600Y-77774800D02*
X151307800Y-77774800D01*
X146278600Y-80314800D02*
X148818600Y-77774800D01*
X152019000Y-108788200D02*
X152019000Y-103708200D01*
X149987000Y-95758000D02*
X150114000Y-95885000D01*
X150114000Y-95885000D02*
X150114000Y-96012000D01*
X150114000Y-96012000D02*
X150749000Y-96647000D01*
X150774400Y-96672400D02*
X150749000Y-96647000D01*
X150774400Y-102463600D02*
X150774400Y-96672400D01*
X152019000Y-103708200D02*
X150774400Y-102463600D01*
X149479000Y-106984800D02*
X149479000Y-108788200D01*
X146100800Y-103606600D02*
X149479000Y-106984800D01*
X195834000Y-73025000D02*
X205206600Y-73025000D01*
X205206600Y-73025000D02*
X205232000Y-73050400D01*
X195834000Y-75565000D02*
X205206600Y-75565000D01*
X205206600Y-75565000D02*
X205232000Y-75590400D01*
X195834000Y-78105000D02*
X205206600Y-78105000D01*
X205206600Y-78105000D02*
X205232000Y-78130400D01*
X195834000Y-80645000D02*
X205206600Y-80645000D01*
X205206600Y-80645000D02*
X205232000Y-80670400D01*
X195834000Y-83185000D02*
X205206600Y-83185000D01*
X205206600Y-83185000D02*
X205232000Y-83210400D01*
X195834000Y-85725000D02*
X205206600Y-85725000D01*
X205206600Y-85725000D02*
X205232000Y-85750400D01*
X190804800Y-70485000D02*
X188214000Y-70485000D01*
X193217800Y-72898000D02*
X190804800Y-70485000D01*
X193217800Y-78155800D02*
X193217800Y-72898000D01*
X193167000Y-78206600D02*
X193217800Y-78155800D01*
X130911600Y-62585600D02*
X133451600Y-62585600D01*
X129286000Y-70154800D02*
X129286000Y-64211200D01*
X129286000Y-64211200D02*
X130911600Y-62585600D01*
X129286000Y-70154800D02*
X131368800Y-70154800D01*
X149910800Y-87934800D02*
X148640800Y-86664800D01*
X148640800Y-86664800D02*
X141960600Y-86664800D01*
X141960600Y-86664800D02*
X141935200Y-86690200D01*
X141935200Y-86690200D02*
X141630400Y-86690200D01*
X149910800Y-87934800D02*
X151307800Y-87934800D01*
X140157200Y-85217000D02*
X141630400Y-86690200D01*
X140157200Y-82905600D02*
X140157200Y-85217000D01*
X138836400Y-81584800D02*
X140157200Y-82905600D01*
X135559800Y-81584800D02*
X138836400Y-81584800D01*
X134416800Y-80441800D02*
X135559800Y-81584800D01*
X134416800Y-73202800D02*
X134416800Y-80441800D01*
X131368800Y-70154800D02*
X134416800Y-73202800D01*
X165455600Y-88112600D02*
X164007800Y-88112600D01*
X155194000Y-87934800D02*
X151307800Y-87934800D01*
X156286200Y-86842600D02*
X155194000Y-87934800D01*
X162737800Y-86842600D02*
X156286200Y-86842600D01*
X164007800Y-88112600D02*
X162737800Y-86842600D01*
X180568600Y-88188800D02*
X176428400Y-88188800D01*
X170103800Y-88112600D02*
X165455600Y-88112600D01*
X171297600Y-86918800D02*
X170103800Y-88112600D01*
X175158400Y-86918800D02*
X171297600Y-86918800D01*
X176428400Y-88188800D02*
X175158400Y-86918800D01*
X195834000Y-88265000D02*
X192557400Y-88265000D01*
X181889400Y-88188800D02*
X180568600Y-88188800D01*
X183108600Y-86969600D02*
X181889400Y-88188800D01*
X191262000Y-86969600D02*
X183108600Y-86969600D01*
X192557400Y-88265000D02*
X191262000Y-86969600D01*
X136906000Y-85394800D02*
X136906000Y-86817200D01*
X137642600Y-87553800D02*
X137642600Y-89179400D01*
X136906000Y-86817200D02*
X137642600Y-87553800D01*
X129286000Y-77774800D02*
X129794000Y-77774800D01*
X129794000Y-77774800D02*
X134874000Y-82854800D01*
X130022600Y-89179400D02*
X130022600Y-87706200D01*
X134874000Y-82854800D02*
X136906000Y-82854800D01*
X130022600Y-87706200D02*
X134874000Y-82854800D01*
X136906000Y-80314800D02*
X136906000Y-77774800D01*
M02*
