M48
;DRILL file {KiCad 4.0.4-stable} date 07/15/17 23:52:46
;FORMAT={-:-/ absolute / inch / decimal}
FMAT,2
INCH,TZ
T1C0.016
T2C0.031
T3C0.035
T4C0.039
%
G90
G05
M72
T1
X5.752Y-4.079
X5.905Y-3.77
X6.182Y-3.678
X6.23Y-3.783
X6.886Y-2.65
X7.605Y-3.079
T2
X5.09Y-2.762
X5.09Y-2.862
X5.09Y-2.962
X5.09Y-3.062
X5.09Y-3.162
X5.09Y-3.262
X5.09Y-3.362
X5.119Y-3.511
X5.123Y-3.661
X5.39Y-2.762
X5.39Y-2.862
X5.39Y-2.962
X5.39Y-3.062
X5.39Y-3.162
X5.39Y-3.262
X5.39Y-3.362
X5.419Y-3.511
X5.423Y-3.661
X5.516Y-2.6536
X5.516Y-2.752
X5.657Y-2.762
X5.657Y-2.862
X5.657Y-2.962
X5.657Y-3.062
X5.657Y-3.162
X5.657Y-3.262
X5.657Y-3.362
X5.657Y-3.462
X5.957Y-2.762
X5.957Y-2.862
X5.957Y-2.962
X5.957Y-3.062
X5.957Y-3.162
X5.957Y-3.262
X5.957Y-3.362
X5.957Y-3.462
X6.214Y-2.769
X6.214Y-2.869
X6.214Y-2.969
X6.214Y-3.069
X6.214Y-3.169
X6.214Y-3.269
X6.214Y-3.369
X6.214Y-3.469
X6.3116Y-2.65
X6.41Y-2.65
X6.514Y-2.769
X6.514Y-2.869
X6.514Y-2.969
X6.514Y-3.069
X6.514Y-3.169
X6.514Y-3.269
X6.514Y-3.369
X6.514Y-3.469
X6.809Y-2.772
X6.809Y-2.872
X6.809Y-2.972
X6.809Y-3.072
X6.809Y-3.172
X6.809Y-3.272
X6.809Y-3.372
X6.809Y-3.472
X7.109Y-2.772
X7.109Y-2.872
X7.109Y-2.972
X7.109Y-3.072
X7.109Y-3.172
X7.109Y-3.272
X7.109Y-3.372
X7.109Y-3.472
X7.284Y-3.1736
X7.284Y-3.272
X7.41Y-2.775
X7.41Y-2.875
X7.41Y-2.975
X7.41Y-3.075
X7.41Y-3.175
X7.41Y-3.275
X7.41Y-3.375
X7.41Y-3.475
X7.71Y-2.775
X7.71Y-2.875
X7.71Y-2.975
X7.71Y-3.075
X7.71Y-3.175
X7.71Y-3.275
X7.71Y-3.375
X7.71Y-3.475
T3
X5.885Y-2.453
X6.185Y-2.453
T4
X5.088Y-3.824
X5.154Y-2.464
X5.188Y-3.824
X5.254Y-2.464
X5.558Y-2.458
X5.585Y-4.283
X5.586Y-3.896
X5.658Y-2.458
X5.685Y-4.283
X5.686Y-3.896
X5.785Y-4.283
X5.786Y-3.896
X5.885Y-4.283
X5.886Y-3.896
X5.985Y-4.283
X5.986Y-3.896
X6.085Y-4.283
X6.086Y-3.896
X6.286Y-3.897
X6.291Y-4.283
X6.386Y-3.897
X6.391Y-4.283
X6.398Y-2.457
X6.486Y-3.897
X6.491Y-4.283
X6.498Y-2.457
X6.586Y-3.897
X6.591Y-4.283
X6.686Y-3.897
X6.691Y-4.283
X6.766Y-2.461
X6.786Y-3.897
X6.791Y-4.283
X6.866Y-2.461
X6.886Y-3.897
X6.891Y-4.283
X6.986Y-3.897
X6.991Y-4.283
X7.086Y-3.897
X7.091Y-4.283
X7.303Y-4.283
X7.307Y-3.899
X7.403Y-4.283
X7.407Y-3.899
X7.503Y-4.283
X7.507Y-3.899
X7.603Y-4.283
X7.607Y-3.899
X7.703Y-4.283
X7.707Y-3.899
X7.955Y-4.227
X8.055Y-4.227
X8.08Y-2.576
X8.08Y-2.676
X8.08Y-2.776
X8.08Y-2.876
X8.08Y-2.976
X8.08Y-3.076
X8.08Y-3.176
X8.08Y-3.276
X8.08Y-3.376
X8.08Y-3.476
X8.08Y-3.576
X8.08Y-3.676
X8.08Y-3.776
T0
M30
