G04 #@! TF.FileFunction,Legend,Top*
%FSLAX46Y46*%
G04 Gerber Fmt 4.6, Leading zero omitted, Abs format (unit mm)*
G04 Created by KiCad (PCBNEW 4.0.4-stable) date 07/15/17 23:55:16*
%MOMM*%
%LPD*%
G01*
G04 APERTURE LIST*
%ADD10C,0.100000*%
%ADD11C,0.300000*%
%ADD12C,0.200000*%
%ADD13C,0.120000*%
%ADD14C,0.150000*%
G04 APERTURE END LIST*
D10*
D11*
X133504229Y-97236743D02*
X134647086Y-97236743D01*
X134075657Y-97808171D02*
X134075657Y-96665314D01*
X136075658Y-96308171D02*
X135361372Y-96308171D01*
X135289943Y-97022457D01*
X135361372Y-96951029D01*
X135504229Y-96879600D01*
X135861372Y-96879600D01*
X136004229Y-96951029D01*
X136075658Y-97022457D01*
X136147086Y-97165314D01*
X136147086Y-97522457D01*
X136075658Y-97665314D01*
X136004229Y-97736743D01*
X135861372Y-97808171D01*
X135504229Y-97808171D01*
X135361372Y-97736743D01*
X135289943Y-97665314D01*
X136575657Y-96308171D02*
X137075657Y-97808171D01*
X137575657Y-96308171D01*
X128033201Y-64710571D02*
X128033201Y-65924857D01*
X128104629Y-66067714D01*
X128176058Y-66139143D01*
X128318915Y-66210571D01*
X128604629Y-66210571D01*
X128747487Y-66139143D01*
X128818915Y-66067714D01*
X128890344Y-65924857D01*
X128890344Y-64710571D01*
X129604630Y-66210571D02*
X129604630Y-64710571D01*
X129961773Y-64710571D01*
X130176058Y-64782000D01*
X130318916Y-64924857D01*
X130390344Y-65067714D01*
X130461773Y-65353429D01*
X130461773Y-65567714D01*
X130390344Y-65853429D01*
X130318916Y-65996286D01*
X130176058Y-66139143D01*
X129961773Y-66210571D01*
X129604630Y-66210571D01*
X130961773Y-64710571D02*
X131961773Y-64710571D01*
X131318916Y-66210571D01*
X132533201Y-65639143D02*
X133676058Y-65639143D01*
X135176058Y-66210571D02*
X134318915Y-66210571D01*
X134747487Y-66210571D02*
X134747487Y-64710571D01*
X134604630Y-64924857D01*
X134461772Y-65067714D01*
X134318915Y-65139143D01*
X136033201Y-65353429D02*
X135890343Y-65282000D01*
X135818915Y-65210571D01*
X135747486Y-65067714D01*
X135747486Y-64996286D01*
X135818915Y-64853429D01*
X135890343Y-64782000D01*
X136033201Y-64710571D01*
X136318915Y-64710571D01*
X136461772Y-64782000D01*
X136533201Y-64853429D01*
X136604629Y-64996286D01*
X136604629Y-65067714D01*
X136533201Y-65210571D01*
X136461772Y-65282000D01*
X136318915Y-65353429D01*
X136033201Y-65353429D01*
X135890343Y-65424857D01*
X135818915Y-65496286D01*
X135747486Y-65639143D01*
X135747486Y-65924857D01*
X135818915Y-66067714D01*
X135890343Y-66139143D01*
X136033201Y-66210571D01*
X136318915Y-66210571D01*
X136461772Y-66139143D01*
X136533201Y-66067714D01*
X136604629Y-65924857D01*
X136604629Y-65639143D01*
X136533201Y-65496286D01*
X136461772Y-65424857D01*
X136318915Y-65353429D01*
X138794800Y-65986743D02*
X139009086Y-66058171D01*
X139366229Y-66058171D01*
X139509086Y-65986743D01*
X139580515Y-65915314D01*
X139651943Y-65772457D01*
X139651943Y-65629600D01*
X139580515Y-65486743D01*
X139509086Y-65415314D01*
X139366229Y-65343886D01*
X139080515Y-65272457D01*
X138937657Y-65201029D01*
X138866229Y-65129600D01*
X138794800Y-64986743D01*
X138794800Y-64843886D01*
X138866229Y-64701029D01*
X138937657Y-64629600D01*
X139080515Y-64558171D01*
X139437657Y-64558171D01*
X139651943Y-64629600D01*
X140151943Y-64558171D02*
X140509086Y-66058171D01*
X140794800Y-64986743D01*
X141080514Y-66058171D01*
X141437657Y-64558171D01*
X142009086Y-66058171D02*
X142009086Y-64558171D01*
X142509086Y-64558171D02*
X143366229Y-64558171D01*
X142937658Y-66058171D02*
X142937658Y-64558171D01*
X144723372Y-65915314D02*
X144651943Y-65986743D01*
X144437657Y-66058171D01*
X144294800Y-66058171D01*
X144080515Y-65986743D01*
X143937657Y-65843886D01*
X143866229Y-65701029D01*
X143794800Y-65415314D01*
X143794800Y-65201029D01*
X143866229Y-64915314D01*
X143937657Y-64772457D01*
X144080515Y-64629600D01*
X144294800Y-64558171D01*
X144437657Y-64558171D01*
X144651943Y-64629600D01*
X144723372Y-64701029D01*
X145366229Y-66058171D02*
X145366229Y-64558171D01*
X145366229Y-65272457D02*
X146223372Y-65272457D01*
X146223372Y-66058171D02*
X146223372Y-64558171D01*
X159541830Y-64304171D02*
X158827544Y-64304171D01*
X158756115Y-65018457D01*
X158827544Y-64947029D01*
X158970401Y-64875600D01*
X159327544Y-64875600D01*
X159470401Y-64947029D01*
X159541830Y-65018457D01*
X159613258Y-65161314D01*
X159613258Y-65518457D01*
X159541830Y-65661314D01*
X159470401Y-65732743D01*
X159327544Y-65804171D01*
X158970401Y-65804171D01*
X158827544Y-65732743D01*
X158756115Y-65661314D01*
X160970401Y-64304171D02*
X160256115Y-64304171D01*
X160184686Y-65018457D01*
X160256115Y-64947029D01*
X160398972Y-64875600D01*
X160756115Y-64875600D01*
X160898972Y-64947029D01*
X160970401Y-65018457D01*
X161041829Y-65161314D01*
X161041829Y-65518457D01*
X160970401Y-65661314D01*
X160898972Y-65732743D01*
X160756115Y-65804171D01*
X160398972Y-65804171D01*
X160256115Y-65732743D01*
X160184686Y-65661314D01*
X162398972Y-64304171D02*
X161684686Y-64304171D01*
X161613257Y-65018457D01*
X161684686Y-64947029D01*
X161827543Y-64875600D01*
X162184686Y-64875600D01*
X162327543Y-64947029D01*
X162398972Y-65018457D01*
X162470400Y-65161314D01*
X162470400Y-65518457D01*
X162398972Y-65661314D01*
X162327543Y-65732743D01*
X162184686Y-65804171D01*
X161827543Y-65804171D01*
X161684686Y-65732743D01*
X161613257Y-65661314D01*
X163113257Y-65804171D02*
X163113257Y-64304171D01*
X163684685Y-64304171D01*
X163827543Y-64375600D01*
X163898971Y-64447029D01*
X163970400Y-64589886D01*
X163970400Y-64804171D01*
X163898971Y-64947029D01*
X163827543Y-65018457D01*
X163684685Y-65089886D01*
X163113257Y-65089886D01*
X164613257Y-65804171D02*
X164613257Y-64304171D01*
X165327543Y-65804171D02*
X165327543Y-64304171D01*
X166184686Y-65804171D01*
X166184686Y-64304171D01*
X166827543Y-64447029D02*
X166898972Y-64375600D01*
X167041829Y-64304171D01*
X167398972Y-64304171D01*
X167541829Y-64375600D01*
X167613258Y-64447029D01*
X167684686Y-64589886D01*
X167684686Y-64732743D01*
X167613258Y-64947029D01*
X166756115Y-65804171D01*
X167684686Y-65804171D01*
X171932743Y-64223200D02*
X171789886Y-64151771D01*
X171575600Y-64151771D01*
X171361315Y-64223200D01*
X171218457Y-64366057D01*
X171147029Y-64508914D01*
X171075600Y-64794629D01*
X171075600Y-65008914D01*
X171147029Y-65294629D01*
X171218457Y-65437486D01*
X171361315Y-65580343D01*
X171575600Y-65651771D01*
X171718457Y-65651771D01*
X171932743Y-65580343D01*
X172004172Y-65508914D01*
X172004172Y-65008914D01*
X171718457Y-65008914D01*
X172647029Y-65651771D02*
X172647029Y-64151771D01*
X173504172Y-65651771D01*
X173504172Y-64151771D01*
X174218458Y-65651771D02*
X174218458Y-64151771D01*
X174575601Y-64151771D01*
X174789886Y-64223200D01*
X174932744Y-64366057D01*
X175004172Y-64508914D01*
X175075601Y-64794629D01*
X175075601Y-65008914D01*
X175004172Y-65294629D01*
X174932744Y-65437486D01*
X174789886Y-65580343D01*
X174575601Y-65651771D01*
X174218458Y-65651771D01*
X193364801Y-105328257D02*
X193579087Y-105399686D01*
X193650515Y-105471114D01*
X193721944Y-105613971D01*
X193721944Y-105828257D01*
X193650515Y-105971114D01*
X193579087Y-106042543D01*
X193436229Y-106113971D01*
X192864801Y-106113971D01*
X192864801Y-104613971D01*
X193364801Y-104613971D01*
X193507658Y-104685400D01*
X193579087Y-104756829D01*
X193650515Y-104899686D01*
X193650515Y-105042543D01*
X193579087Y-105185400D01*
X193507658Y-105256829D01*
X193364801Y-105328257D01*
X192864801Y-105328257D01*
X194293372Y-105685400D02*
X195007658Y-105685400D01*
X194150515Y-106113971D02*
X194650515Y-104613971D01*
X195150515Y-106113971D01*
X195936229Y-104613971D02*
X196079086Y-104613971D01*
X196221943Y-104685400D01*
X196293372Y-104756829D01*
X196364801Y-104899686D01*
X196436229Y-105185400D01*
X196436229Y-105542543D01*
X196364801Y-105828257D01*
X196293372Y-105971114D01*
X196221943Y-106042543D01*
X196079086Y-106113971D01*
X195936229Y-106113971D01*
X195793372Y-106042543D01*
X195721943Y-105971114D01*
X195650515Y-105828257D01*
X195579086Y-105542543D01*
X195579086Y-105185400D01*
X195650515Y-104899686D01*
X195721943Y-104756829D01*
X195793372Y-104685400D01*
X195936229Y-104613971D01*
X141342515Y-105429857D02*
X141556801Y-105501286D01*
X141628229Y-105572714D01*
X141699658Y-105715571D01*
X141699658Y-105929857D01*
X141628229Y-106072714D01*
X141556801Y-106144143D01*
X141413943Y-106215571D01*
X140842515Y-106215571D01*
X140842515Y-104715571D01*
X141342515Y-104715571D01*
X141485372Y-104787000D01*
X141556801Y-104858429D01*
X141628229Y-105001286D01*
X141628229Y-105144143D01*
X141556801Y-105287000D01*
X141485372Y-105358429D01*
X141342515Y-105429857D01*
X140842515Y-105429857D01*
X142271086Y-105787000D02*
X142985372Y-105787000D01*
X142128229Y-106215571D02*
X142628229Y-104715571D01*
X143128229Y-106215571D01*
X144413943Y-106215571D02*
X143556800Y-106215571D01*
X143985372Y-106215571D02*
X143985372Y-104715571D01*
X143842515Y-104929857D01*
X143699657Y-105072714D01*
X143556800Y-105144143D01*
X145342514Y-104715571D02*
X145485371Y-104715571D01*
X145628228Y-104787000D01*
X145699657Y-104858429D01*
X145771086Y-105001286D01*
X145842514Y-105287000D01*
X145842514Y-105644143D01*
X145771086Y-105929857D01*
X145699657Y-106072714D01*
X145628228Y-106144143D01*
X145485371Y-106215571D01*
X145342514Y-106215571D01*
X145199657Y-106144143D01*
X145128228Y-106072714D01*
X145056800Y-105929857D01*
X144985371Y-105644143D01*
X144985371Y-105287000D01*
X145056800Y-105001286D01*
X145128228Y-104858429D01*
X145199657Y-104787000D01*
X145342514Y-104715571D01*
X149188628Y-94480771D02*
X149188628Y-92980771D01*
X149760056Y-92980771D01*
X149902914Y-93052200D01*
X149974342Y-93123629D01*
X150045771Y-93266486D01*
X150045771Y-93480771D01*
X149974342Y-93623629D01*
X149902914Y-93695057D01*
X149760056Y-93766486D01*
X149188628Y-93766486D01*
X150688628Y-93695057D02*
X151188628Y-93695057D01*
X151402914Y-94480771D02*
X150688628Y-94480771D01*
X150688628Y-92980771D01*
X151402914Y-92980771D01*
X151831485Y-92980771D02*
X152688628Y-92980771D01*
X152260057Y-94480771D02*
X152260057Y-92980771D01*
X154260056Y-92909343D02*
X152974342Y-94837914D01*
X155617200Y-94337914D02*
X155545771Y-94409343D01*
X155331485Y-94480771D01*
X155188628Y-94480771D01*
X154974343Y-94409343D01*
X154831485Y-94266486D01*
X154760057Y-94123629D01*
X154688628Y-93837914D01*
X154688628Y-93623629D01*
X154760057Y-93337914D01*
X154831485Y-93195057D01*
X154974343Y-93052200D01*
X155188628Y-92980771D01*
X155331485Y-92980771D01*
X155545771Y-93052200D01*
X155617200Y-93123629D01*
X156760057Y-93695057D02*
X156974343Y-93766486D01*
X157045771Y-93837914D01*
X157117200Y-93980771D01*
X157117200Y-94195057D01*
X157045771Y-94337914D01*
X156974343Y-94409343D01*
X156831485Y-94480771D01*
X156260057Y-94480771D01*
X156260057Y-92980771D01*
X156760057Y-92980771D01*
X156902914Y-93052200D01*
X156974343Y-93123629D01*
X157045771Y-93266486D01*
X157045771Y-93409343D01*
X156974343Y-93552200D01*
X156902914Y-93623629D01*
X156760057Y-93695057D01*
X156260057Y-93695057D01*
X157760057Y-94480771D02*
X157760057Y-92980771D01*
X158260057Y-94052200D01*
X158760057Y-92980771D01*
X158760057Y-94480771D01*
X161260057Y-93480771D02*
X161260057Y-94480771D01*
X160902914Y-92909343D02*
X160545771Y-93980771D01*
X161474343Y-93980771D01*
X162331485Y-92980771D02*
X162474342Y-92980771D01*
X162617199Y-93052200D01*
X162688628Y-93123629D01*
X162760057Y-93266486D01*
X162831485Y-93552200D01*
X162831485Y-93909343D01*
X162760057Y-94195057D01*
X162688628Y-94337914D01*
X162617199Y-94409343D01*
X162474342Y-94480771D01*
X162331485Y-94480771D01*
X162188628Y-94409343D01*
X162117199Y-94337914D01*
X162045771Y-94195057D01*
X161974342Y-93909343D01*
X161974342Y-93552200D01*
X162045771Y-93266486D01*
X162117199Y-93123629D01*
X162188628Y-93052200D01*
X162331485Y-92980771D01*
X164545770Y-92909343D02*
X163260056Y-94837914D01*
X165260057Y-93623629D02*
X165117199Y-93552200D01*
X165045771Y-93480771D01*
X164974342Y-93337914D01*
X164974342Y-93266486D01*
X165045771Y-93123629D01*
X165117199Y-93052200D01*
X165260057Y-92980771D01*
X165545771Y-92980771D01*
X165688628Y-93052200D01*
X165760057Y-93123629D01*
X165831485Y-93266486D01*
X165831485Y-93337914D01*
X165760057Y-93480771D01*
X165688628Y-93552200D01*
X165545771Y-93623629D01*
X165260057Y-93623629D01*
X165117199Y-93695057D01*
X165045771Y-93766486D01*
X164974342Y-93909343D01*
X164974342Y-94195057D01*
X165045771Y-94337914D01*
X165117199Y-94409343D01*
X165260057Y-94480771D01*
X165545771Y-94480771D01*
X165688628Y-94409343D01*
X165760057Y-94337914D01*
X165831485Y-94195057D01*
X165831485Y-93909343D01*
X165760057Y-93766486D01*
X165688628Y-93695057D01*
X165545771Y-93623629D01*
X166760056Y-92980771D02*
X166902913Y-92980771D01*
X167045770Y-93052200D01*
X167117199Y-93123629D01*
X167188628Y-93266486D01*
X167260056Y-93552200D01*
X167260056Y-93909343D01*
X167188628Y-94195057D01*
X167117199Y-94337914D01*
X167045770Y-94409343D01*
X166902913Y-94480771D01*
X166760056Y-94480771D01*
X166617199Y-94409343D01*
X166545770Y-94337914D01*
X166474342Y-94195057D01*
X166402913Y-93909343D01*
X166402913Y-93552200D01*
X166474342Y-93266486D01*
X166545770Y-93123629D01*
X166617199Y-93052200D01*
X166760056Y-92980771D01*
X169902913Y-94337914D02*
X169831484Y-94409343D01*
X169617198Y-94480771D01*
X169474341Y-94480771D01*
X169260056Y-94409343D01*
X169117198Y-94266486D01*
X169045770Y-94123629D01*
X168974341Y-93837914D01*
X168974341Y-93623629D01*
X169045770Y-93337914D01*
X169117198Y-93195057D01*
X169260056Y-93052200D01*
X169474341Y-92980771D01*
X169617198Y-92980771D01*
X169831484Y-93052200D01*
X169902913Y-93123629D01*
X170831484Y-92980771D02*
X171117198Y-92980771D01*
X171260056Y-93052200D01*
X171402913Y-93195057D01*
X171474341Y-93480771D01*
X171474341Y-93980771D01*
X171402913Y-94266486D01*
X171260056Y-94409343D01*
X171117198Y-94480771D01*
X170831484Y-94480771D01*
X170688627Y-94409343D01*
X170545770Y-94266486D01*
X170474341Y-93980771D01*
X170474341Y-93480771D01*
X170545770Y-93195057D01*
X170688627Y-93052200D01*
X170831484Y-92980771D01*
X172831485Y-94480771D02*
X172117199Y-94480771D01*
X172117199Y-92980771D01*
X173331485Y-92980771D02*
X173331485Y-94195057D01*
X173402913Y-94337914D01*
X173474342Y-94409343D01*
X173617199Y-94480771D01*
X173902913Y-94480771D01*
X174045771Y-94409343D01*
X174117199Y-94337914D01*
X174188628Y-94195057D01*
X174188628Y-92980771D01*
X174902914Y-94480771D02*
X174902914Y-92980771D01*
X175402914Y-94052200D01*
X175902914Y-92980771D01*
X175902914Y-94480771D01*
X176617200Y-94480771D02*
X176617200Y-92980771D01*
X177474343Y-94480771D01*
X177474343Y-92980771D01*
X179260057Y-94409343D02*
X179474343Y-94480771D01*
X179831486Y-94480771D01*
X179974343Y-94409343D01*
X180045772Y-94337914D01*
X180117200Y-94195057D01*
X180117200Y-94052200D01*
X180045772Y-93909343D01*
X179974343Y-93837914D01*
X179831486Y-93766486D01*
X179545772Y-93695057D01*
X179402914Y-93623629D01*
X179331486Y-93552200D01*
X179260057Y-93409343D01*
X179260057Y-93266486D01*
X179331486Y-93123629D01*
X179402914Y-93052200D01*
X179545772Y-92980771D01*
X179902914Y-92980771D01*
X180117200Y-93052200D01*
X180617200Y-92980771D02*
X180974343Y-94480771D01*
X181260057Y-93409343D01*
X181545771Y-94480771D01*
X181902914Y-92980771D01*
X182474343Y-94480771D02*
X182474343Y-92980771D01*
X182974343Y-92980771D02*
X183831486Y-92980771D01*
X183402915Y-94480771D02*
X183402915Y-92980771D01*
X185188629Y-94337914D02*
X185117200Y-94409343D01*
X184902914Y-94480771D01*
X184760057Y-94480771D01*
X184545772Y-94409343D01*
X184402914Y-94266486D01*
X184331486Y-94123629D01*
X184260057Y-93837914D01*
X184260057Y-93623629D01*
X184331486Y-93337914D01*
X184402914Y-93195057D01*
X184545772Y-93052200D01*
X184760057Y-92980771D01*
X184902914Y-92980771D01*
X185117200Y-93052200D01*
X185188629Y-93123629D01*
X185831486Y-94480771D02*
X185831486Y-92980771D01*
X185831486Y-93695057D02*
X186688629Y-93695057D01*
X186688629Y-94480771D02*
X186688629Y-92980771D01*
X187402915Y-93695057D02*
X187902915Y-93695057D01*
X188117201Y-94480771D02*
X187402915Y-94480771D01*
X187402915Y-92980771D01*
X188117201Y-92980771D01*
X189617201Y-94480771D02*
X189117201Y-93766486D01*
X188760058Y-94480771D02*
X188760058Y-92980771D01*
X189331486Y-92980771D01*
X189474344Y-93052200D01*
X189545772Y-93123629D01*
X189617201Y-93266486D01*
X189617201Y-93480771D01*
X189545772Y-93623629D01*
X189474344Y-93695057D01*
X189331486Y-93766486D01*
X188760058Y-93766486D01*
D12*
X178768362Y-65640819D02*
X179135029Y-66740819D01*
X179501695Y-65640819D01*
X180444552Y-66740819D02*
X179815981Y-66740819D01*
X180130267Y-66740819D02*
X180130267Y-65640819D01*
X180025505Y-65797962D01*
X179920743Y-65902724D01*
X179815981Y-65955105D01*
X180915981Y-66636057D02*
X180968362Y-66688438D01*
X180915981Y-66740819D01*
X180863600Y-66688438D01*
X180915981Y-66636057D01*
X180915981Y-66740819D01*
X181649315Y-65640819D02*
X181754076Y-65640819D01*
X181858838Y-65693200D01*
X181911219Y-65745581D01*
X181963600Y-65850343D01*
X182015981Y-66059867D01*
X182015981Y-66321771D01*
X181963600Y-66531295D01*
X181911219Y-66636057D01*
X181858838Y-66688438D01*
X181754076Y-66740819D01*
X181649315Y-66740819D01*
X181544553Y-66688438D01*
X181492172Y-66636057D01*
X181439791Y-66531295D01*
X181387410Y-66321771D01*
X181387410Y-66059867D01*
X181439791Y-65850343D01*
X181492172Y-65745581D01*
X181544553Y-65693200D01*
X181649315Y-65640819D01*
X183325505Y-66321771D02*
X184163600Y-66321771D01*
X185473124Y-65745581D02*
X185525505Y-65693200D01*
X185630267Y-65640819D01*
X185892171Y-65640819D01*
X185996933Y-65693200D01*
X186049314Y-65745581D01*
X186101695Y-65850343D01*
X186101695Y-65955105D01*
X186049314Y-66112248D01*
X185420743Y-66740819D01*
X186101695Y-66740819D01*
X186782648Y-65640819D02*
X186887409Y-65640819D01*
X186992171Y-65693200D01*
X187044552Y-65745581D01*
X187096933Y-65850343D01*
X187149314Y-66059867D01*
X187149314Y-66321771D01*
X187096933Y-66531295D01*
X187044552Y-66636057D01*
X186992171Y-66688438D01*
X186887409Y-66740819D01*
X186782648Y-66740819D01*
X186677886Y-66688438D01*
X186625505Y-66636057D01*
X186573124Y-66531295D01*
X186520743Y-66321771D01*
X186520743Y-66059867D01*
X186573124Y-65850343D01*
X186625505Y-65745581D01*
X186677886Y-65693200D01*
X186782648Y-65640819D01*
X188196933Y-66740819D02*
X187568362Y-66740819D01*
X187882648Y-66740819D02*
X187882648Y-65640819D01*
X187777886Y-65797962D01*
X187673124Y-65902724D01*
X187568362Y-65955105D01*
X188563600Y-65640819D02*
X189296933Y-65640819D01*
X188825505Y-66740819D01*
X189715981Y-66321771D02*
X190554076Y-66321771D01*
X191287410Y-65640819D02*
X191392171Y-65640819D01*
X191496933Y-65693200D01*
X191549314Y-65745581D01*
X191601695Y-65850343D01*
X191654076Y-66059867D01*
X191654076Y-66321771D01*
X191601695Y-66531295D01*
X191549314Y-66636057D01*
X191496933Y-66688438D01*
X191392171Y-66740819D01*
X191287410Y-66740819D01*
X191182648Y-66688438D01*
X191130267Y-66636057D01*
X191077886Y-66531295D01*
X191025505Y-66321771D01*
X191025505Y-66059867D01*
X191077886Y-65850343D01*
X191130267Y-65745581D01*
X191182648Y-65693200D01*
X191287410Y-65640819D01*
X192020743Y-65640819D02*
X192754076Y-65640819D01*
X192282648Y-66740819D01*
X193173124Y-66321771D02*
X194011219Y-66321771D01*
X195111219Y-66740819D02*
X194482648Y-66740819D01*
X194796934Y-66740819D02*
X194796934Y-65640819D01*
X194692172Y-65797962D01*
X194587410Y-65902724D01*
X194482648Y-65955105D01*
X196106457Y-65640819D02*
X195582648Y-65640819D01*
X195530267Y-66164629D01*
X195582648Y-66112248D01*
X195687410Y-66059867D01*
X195949314Y-66059867D01*
X196054076Y-66112248D01*
X196106457Y-66164629D01*
X196158838Y-66269390D01*
X196158838Y-66531295D01*
X196106457Y-66636057D01*
X196054076Y-66688438D01*
X195949314Y-66740819D01*
X195687410Y-66740819D01*
X195582648Y-66688438D01*
X195530267Y-66636057D01*
D11*
X161977571Y-103318571D02*
X161977571Y-104390000D01*
X161906143Y-104604286D01*
X161763286Y-104747143D01*
X161549000Y-104818571D01*
X161406143Y-104818571D01*
X162691857Y-103318571D02*
X162691857Y-104532857D01*
X162763285Y-104675714D01*
X162834714Y-104747143D01*
X162977571Y-104818571D01*
X163263285Y-104818571D01*
X163406143Y-104747143D01*
X163477571Y-104675714D01*
X163549000Y-104532857D01*
X163549000Y-103318571D01*
X164263286Y-104818571D02*
X164263286Y-103318571D01*
X164763286Y-104390000D01*
X165263286Y-103318571D01*
X165263286Y-104818571D01*
X165977572Y-104818571D02*
X165977572Y-103318571D01*
X166549000Y-103318571D01*
X166691858Y-103390000D01*
X166763286Y-103461429D01*
X166834715Y-103604286D01*
X166834715Y-103818571D01*
X166763286Y-103961429D01*
X166691858Y-104032857D01*
X166549000Y-104104286D01*
X165977572Y-104104286D01*
X167477572Y-104032857D02*
X167977572Y-104032857D01*
X168191858Y-104818571D02*
X167477572Y-104818571D01*
X167477572Y-103318571D01*
X168191858Y-103318571D01*
X169691858Y-104818571D02*
X169191858Y-104104286D01*
X168834715Y-104818571D02*
X168834715Y-103318571D01*
X169406143Y-103318571D01*
X169549001Y-103390000D01*
X169620429Y-103461429D01*
X169691858Y-103604286D01*
X169691858Y-103818571D01*
X169620429Y-103961429D01*
X169549001Y-104032857D01*
X169406143Y-104104286D01*
X168834715Y-104104286D01*
X171977572Y-104032857D02*
X172191858Y-104104286D01*
X172263286Y-104175714D01*
X172334715Y-104318571D01*
X172334715Y-104532857D01*
X172263286Y-104675714D01*
X172191858Y-104747143D01*
X172049000Y-104818571D01*
X171477572Y-104818571D01*
X171477572Y-103318571D01*
X171977572Y-103318571D01*
X172120429Y-103390000D01*
X172191858Y-103461429D01*
X172263286Y-103604286D01*
X172263286Y-103747143D01*
X172191858Y-103890000D01*
X172120429Y-103961429D01*
X171977572Y-104032857D01*
X171477572Y-104032857D01*
X173691858Y-104818571D02*
X172977572Y-104818571D01*
X172977572Y-103318571D01*
X174477572Y-103318571D02*
X174763286Y-103318571D01*
X174906144Y-103390000D01*
X175049001Y-103532857D01*
X175120429Y-103818571D01*
X175120429Y-104318571D01*
X175049001Y-104604286D01*
X174906144Y-104747143D01*
X174763286Y-104818571D01*
X174477572Y-104818571D01*
X174334715Y-104747143D01*
X174191858Y-104604286D01*
X174120429Y-104318571D01*
X174120429Y-103818571D01*
X174191858Y-103532857D01*
X174334715Y-103390000D01*
X174477572Y-103318571D01*
X176620430Y-104675714D02*
X176549001Y-104747143D01*
X176334715Y-104818571D01*
X176191858Y-104818571D01*
X175977573Y-104747143D01*
X175834715Y-104604286D01*
X175763287Y-104461429D01*
X175691858Y-104175714D01*
X175691858Y-103961429D01*
X175763287Y-103675714D01*
X175834715Y-103532857D01*
X175977573Y-103390000D01*
X176191858Y-103318571D01*
X176334715Y-103318571D01*
X176549001Y-103390000D01*
X176620430Y-103461429D01*
X177263287Y-104818571D02*
X177263287Y-103318571D01*
X178120430Y-104818571D02*
X177477573Y-103961429D01*
X178120430Y-103318571D02*
X177263287Y-104175714D01*
X179533429Y-62230857D02*
X179133429Y-61659429D01*
X178847714Y-62230857D02*
X178847714Y-61030857D01*
X179304857Y-61030857D01*
X179419143Y-61088000D01*
X179476286Y-61145143D01*
X179533429Y-61259429D01*
X179533429Y-61430857D01*
X179476286Y-61545143D01*
X179419143Y-61602286D01*
X179304857Y-61659429D01*
X178847714Y-61659429D01*
X180047714Y-61602286D02*
X180447714Y-61602286D01*
X180619143Y-62230857D02*
X180047714Y-62230857D01*
X180047714Y-61030857D01*
X180619143Y-61030857D01*
X181133428Y-61773714D02*
X182047714Y-61773714D01*
X182619142Y-61602286D02*
X183019142Y-61602286D01*
X183190571Y-62230857D02*
X182619142Y-62230857D01*
X182619142Y-61030857D01*
X183190571Y-61030857D01*
X183704856Y-62230857D02*
X183704856Y-61030857D01*
X184390571Y-62230857D01*
X184390571Y-61030857D01*
X185590571Y-61088000D02*
X185476285Y-61030857D01*
X185304856Y-61030857D01*
X185133428Y-61088000D01*
X185019142Y-61202286D01*
X184961999Y-61316571D01*
X184904856Y-61545143D01*
X184904856Y-61716571D01*
X184961999Y-61945143D01*
X185019142Y-62059429D01*
X185133428Y-62173714D01*
X185304856Y-62230857D01*
X185419142Y-62230857D01*
X185590571Y-62173714D01*
X185647714Y-62116571D01*
X185647714Y-61716571D01*
X185419142Y-61716571D01*
X186161999Y-62230857D02*
X186161999Y-61030857D01*
X186733428Y-62230857D02*
X186733428Y-61030857D01*
X187419143Y-62230857D01*
X187419143Y-61030857D01*
X187990571Y-61602286D02*
X188390571Y-61602286D01*
X188562000Y-62230857D02*
X187990571Y-62230857D01*
X187990571Y-61030857D01*
X188562000Y-61030857D01*
X189076285Y-61602286D02*
X189476285Y-61602286D01*
X189647714Y-62230857D02*
X189076285Y-62230857D01*
X189076285Y-61030857D01*
X189647714Y-61030857D01*
X190847714Y-62230857D02*
X190447714Y-61659429D01*
X190161999Y-62230857D02*
X190161999Y-61030857D01*
X190619142Y-61030857D01*
X190733428Y-61088000D01*
X190790571Y-61145143D01*
X190847714Y-61259429D01*
X190847714Y-61430857D01*
X190790571Y-61545143D01*
X190733428Y-61602286D01*
X190619142Y-61659429D01*
X190161999Y-61659429D01*
X191361999Y-61602286D02*
X191761999Y-61602286D01*
X191933428Y-62230857D02*
X191361999Y-62230857D01*
X191361999Y-61030857D01*
X191933428Y-61030857D01*
X192447713Y-62230857D02*
X192447713Y-61030857D01*
X192733428Y-61030857D01*
X192904856Y-61088000D01*
X193019142Y-61202286D01*
X193076285Y-61316571D01*
X193133428Y-61545143D01*
X193133428Y-61716571D01*
X193076285Y-61945143D01*
X193019142Y-62059429D01*
X192904856Y-62173714D01*
X192733428Y-62230857D01*
X192447713Y-62230857D01*
X194961999Y-61602286D02*
X195133428Y-61659429D01*
X195190571Y-61716571D01*
X195247714Y-61830857D01*
X195247714Y-62002286D01*
X195190571Y-62116571D01*
X195133428Y-62173714D01*
X195019142Y-62230857D01*
X194561999Y-62230857D01*
X194561999Y-61030857D01*
X194961999Y-61030857D01*
X195076285Y-61088000D01*
X195133428Y-61145143D01*
X195190571Y-61259429D01*
X195190571Y-61373714D01*
X195133428Y-61488000D01*
X195076285Y-61545143D01*
X194961999Y-61602286D01*
X194561999Y-61602286D01*
X195990571Y-61659429D02*
X195990571Y-62230857D01*
X195590571Y-61030857D02*
X195990571Y-61659429D01*
X196390571Y-61030857D01*
X178790571Y-64273714D02*
X178962000Y-64330857D01*
X179247714Y-64330857D01*
X179362000Y-64273714D01*
X179419143Y-64216571D01*
X179476286Y-64102286D01*
X179476286Y-63988000D01*
X179419143Y-63873714D01*
X179362000Y-63816571D01*
X179247714Y-63759429D01*
X179019143Y-63702286D01*
X178904857Y-63645143D01*
X178847714Y-63588000D01*
X178790571Y-63473714D01*
X178790571Y-63359429D01*
X178847714Y-63245143D01*
X178904857Y-63188000D01*
X179019143Y-63130857D01*
X179304857Y-63130857D01*
X179476286Y-63188000D01*
X179819143Y-63530857D02*
X180276286Y-63530857D01*
X179990571Y-63130857D02*
X179990571Y-64159429D01*
X180047714Y-64273714D01*
X180162000Y-64330857D01*
X180276286Y-64330857D01*
X181133428Y-64273714D02*
X181019142Y-64330857D01*
X180790571Y-64330857D01*
X180676285Y-64273714D01*
X180619142Y-64159429D01*
X180619142Y-63702286D01*
X180676285Y-63588000D01*
X180790571Y-63530857D01*
X181019142Y-63530857D01*
X181133428Y-63588000D01*
X181190571Y-63702286D01*
X181190571Y-63816571D01*
X180619142Y-63930857D01*
X181590571Y-63530857D02*
X181876285Y-64330857D01*
X182161999Y-63530857D01*
X183076285Y-64273714D02*
X182961999Y-64330857D01*
X182733428Y-64330857D01*
X182619142Y-64273714D01*
X182561999Y-64159429D01*
X182561999Y-63702286D01*
X182619142Y-63588000D01*
X182733428Y-63530857D01*
X182961999Y-63530857D01*
X183076285Y-63588000D01*
X183133428Y-63702286D01*
X183133428Y-63816571D01*
X182561999Y-63930857D01*
X184904856Y-63130857D02*
X184904856Y-63988000D01*
X184847714Y-64159429D01*
X184733428Y-64273714D01*
X184561999Y-64330857D01*
X184447714Y-64330857D01*
X185476285Y-64216571D02*
X185533428Y-64273714D01*
X185476285Y-64330857D01*
X185419142Y-64273714D01*
X185476285Y-64216571D01*
X185476285Y-64330857D01*
X187590572Y-63188000D02*
X187476286Y-63130857D01*
X187304857Y-63130857D01*
X187133429Y-63188000D01*
X187019143Y-63302286D01*
X186962000Y-63416571D01*
X186904857Y-63645143D01*
X186904857Y-63816571D01*
X186962000Y-64045143D01*
X187019143Y-64159429D01*
X187133429Y-64273714D01*
X187304857Y-64330857D01*
X187419143Y-64330857D01*
X187590572Y-64273714D01*
X187647715Y-64216571D01*
X187647715Y-63816571D01*
X187419143Y-63816571D01*
X188162000Y-64330857D02*
X188162000Y-63530857D01*
X188162000Y-63759429D02*
X188219143Y-63645143D01*
X188276286Y-63588000D01*
X188390572Y-63530857D01*
X188504857Y-63530857D01*
X189419143Y-64330857D02*
X189419143Y-63702286D01*
X189362000Y-63588000D01*
X189247714Y-63530857D01*
X189019143Y-63530857D01*
X188904857Y-63588000D01*
X189419143Y-64273714D02*
X189304857Y-64330857D01*
X189019143Y-64330857D01*
X188904857Y-64273714D01*
X188847714Y-64159429D01*
X188847714Y-64045143D01*
X188904857Y-63930857D01*
X189019143Y-63873714D01*
X189304857Y-63873714D01*
X189419143Y-63816571D01*
X189876286Y-63530857D02*
X190162000Y-64330857D01*
X190447714Y-63530857D02*
X190162000Y-64330857D01*
X190047714Y-64616571D01*
X189990571Y-64673714D01*
X189876286Y-64730857D01*
X201408371Y-105273171D02*
X202908371Y-104987457D01*
X201836943Y-104758886D01*
X202908371Y-104530314D01*
X201408371Y-104244600D01*
X202908371Y-103787457D02*
X201408371Y-103787457D01*
X202122657Y-103787457D02*
X202122657Y-103101742D01*
X202908371Y-103101742D02*
X201408371Y-103101742D01*
X202908371Y-102530314D02*
X201408371Y-102530314D01*
X201408371Y-102130313D02*
X201408371Y-101444599D01*
X202908371Y-101787456D02*
X201408371Y-101787456D01*
X202122657Y-101044599D02*
X202122657Y-100644599D01*
X202908371Y-100473170D02*
X202908371Y-101044599D01*
X201408371Y-101044599D01*
X201408371Y-100473170D01*
X204672657Y-104958886D02*
X204744086Y-104787457D01*
X204815514Y-104730314D01*
X204958371Y-104673171D01*
X205172657Y-104673171D01*
X205315514Y-104730314D01*
X205386943Y-104787457D01*
X205458371Y-104901743D01*
X205458371Y-105358886D01*
X203958371Y-105358886D01*
X203958371Y-104958886D01*
X204029800Y-104844600D01*
X204101229Y-104787457D01*
X204244086Y-104730314D01*
X204386943Y-104730314D01*
X204529800Y-104787457D01*
X204601229Y-104844600D01*
X204672657Y-104958886D01*
X204672657Y-105358886D01*
X205458371Y-103587457D02*
X205458371Y-104158886D01*
X203958371Y-104158886D01*
X205029800Y-103244600D02*
X205029800Y-102673171D01*
X205458371Y-103358885D02*
X203958371Y-102958885D01*
X205458371Y-102558885D01*
X205315514Y-101473171D02*
X205386943Y-101530314D01*
X205458371Y-101701743D01*
X205458371Y-101816029D01*
X205386943Y-101987457D01*
X205244086Y-102101743D01*
X205101229Y-102158886D01*
X204815514Y-102216029D01*
X204601229Y-102216029D01*
X204315514Y-102158886D01*
X204172657Y-102101743D01*
X204029800Y-101987457D01*
X203958371Y-101816029D01*
X203958371Y-101701743D01*
X204029800Y-101530314D01*
X204101229Y-101473171D01*
X205458371Y-100958886D02*
X203958371Y-100958886D01*
X205458371Y-100273171D02*
X204601229Y-100787457D01*
X203958371Y-100273171D02*
X204815514Y-100958886D01*
X199828628Y-65415657D02*
X200000057Y-65487086D01*
X200057200Y-65558514D01*
X200114343Y-65701371D01*
X200114343Y-65915657D01*
X200057200Y-66058514D01*
X200000057Y-66129943D01*
X199885771Y-66201371D01*
X199428628Y-66201371D01*
X199428628Y-64701371D01*
X199828628Y-64701371D01*
X199942914Y-64772800D01*
X200000057Y-64844229D01*
X200057200Y-64987086D01*
X200057200Y-65129943D01*
X200000057Y-65272800D01*
X199942914Y-65344229D01*
X199828628Y-65415657D01*
X199428628Y-65415657D01*
X201200057Y-66201371D02*
X200628628Y-66201371D01*
X200628628Y-64701371D01*
X201600057Y-64701371D02*
X201600057Y-65915657D01*
X201657200Y-66058514D01*
X201714343Y-66129943D01*
X201828629Y-66201371D01*
X202057200Y-66201371D01*
X202171486Y-66129943D01*
X202228629Y-66058514D01*
X202285772Y-65915657D01*
X202285772Y-64701371D01*
X202857200Y-65415657D02*
X203257200Y-65415657D01*
X203428629Y-66201371D02*
X202857200Y-66201371D01*
X202857200Y-64701371D01*
X203428629Y-64701371D01*
X199085771Y-68751371D02*
X199085771Y-67251371D01*
X199542914Y-67251371D01*
X199657200Y-67322800D01*
X199714343Y-67394229D01*
X199771486Y-67537086D01*
X199771486Y-67751371D01*
X199714343Y-67894229D01*
X199657200Y-67965657D01*
X199542914Y-68037086D01*
X199085771Y-68037086D01*
X200285771Y-67251371D02*
X200285771Y-68465657D01*
X200342914Y-68608514D01*
X200400057Y-68679943D01*
X200514343Y-68751371D01*
X200742914Y-68751371D01*
X200857200Y-68679943D01*
X200914343Y-68608514D01*
X200971486Y-68465657D01*
X200971486Y-67251371D01*
X202228629Y-68751371D02*
X201828629Y-68037086D01*
X201542914Y-68751371D02*
X201542914Y-67251371D01*
X202000057Y-67251371D01*
X202114343Y-67322800D01*
X202171486Y-67394229D01*
X202228629Y-67537086D01*
X202228629Y-67751371D01*
X202171486Y-67894229D01*
X202114343Y-67965657D01*
X202000057Y-68037086D01*
X201542914Y-68037086D01*
X202742914Y-68751371D02*
X202742914Y-67251371D01*
X203200057Y-67251371D01*
X203314343Y-67322800D01*
X203371486Y-67394229D01*
X203428629Y-67537086D01*
X203428629Y-67751371D01*
X203371486Y-67894229D01*
X203314343Y-67965657D01*
X203200057Y-68037086D01*
X202742914Y-68037086D01*
X200057201Y-69872800D02*
X199942915Y-69801371D01*
X199771486Y-69801371D01*
X199600058Y-69872800D01*
X199485772Y-70015657D01*
X199428629Y-70158514D01*
X199371486Y-70444229D01*
X199371486Y-70658514D01*
X199428629Y-70944229D01*
X199485772Y-71087086D01*
X199600058Y-71229943D01*
X199771486Y-71301371D01*
X199885772Y-71301371D01*
X200057201Y-71229943D01*
X200114344Y-71158514D01*
X200114344Y-70658514D01*
X199885772Y-70658514D01*
X201314344Y-71301371D02*
X200914344Y-70587086D01*
X200628629Y-71301371D02*
X200628629Y-69801371D01*
X201085772Y-69801371D01*
X201200058Y-69872800D01*
X201257201Y-69944229D01*
X201314344Y-70087086D01*
X201314344Y-70301371D01*
X201257201Y-70444229D01*
X201200058Y-70515657D01*
X201085772Y-70587086D01*
X200628629Y-70587086D01*
X201828629Y-70515657D02*
X202228629Y-70515657D01*
X202400058Y-71301371D02*
X201828629Y-71301371D01*
X201828629Y-69801371D01*
X202400058Y-69801371D01*
X203142915Y-70587086D02*
X203142915Y-71301371D01*
X202742915Y-69801371D02*
X203142915Y-70587086D01*
X203542915Y-69801371D01*
X198628628Y-72351371D02*
X198914342Y-73851371D01*
X199142913Y-72779943D01*
X199371485Y-73851371D01*
X199657199Y-72351371D01*
X200114342Y-73851371D02*
X200114342Y-72351371D01*
X200114342Y-73065657D02*
X200800057Y-73065657D01*
X200800057Y-73851371D02*
X200800057Y-72351371D01*
X201371485Y-73851371D02*
X201371485Y-72351371D01*
X201771486Y-72351371D02*
X202457200Y-72351371D01*
X202114343Y-73851371D02*
X202114343Y-72351371D01*
X202857200Y-73065657D02*
X203257200Y-73065657D01*
X203428629Y-73851371D02*
X202857200Y-73851371D01*
X202857200Y-72351371D01*
X203428629Y-72351371D01*
X198742914Y-75615657D02*
X198914343Y-75687086D01*
X198971486Y-75758514D01*
X199028629Y-75901371D01*
X199028629Y-76115657D01*
X198971486Y-76258514D01*
X198914343Y-76329943D01*
X198800057Y-76401371D01*
X198342914Y-76401371D01*
X198342914Y-74901371D01*
X198742914Y-74901371D01*
X198857200Y-74972800D01*
X198914343Y-75044229D01*
X198971486Y-75187086D01*
X198971486Y-75329943D01*
X198914343Y-75472800D01*
X198857200Y-75544229D01*
X198742914Y-75615657D01*
X198342914Y-75615657D01*
X200114343Y-76401371D02*
X199542914Y-76401371D01*
X199542914Y-74901371D01*
X200457200Y-75972800D02*
X201028629Y-75972800D01*
X200342915Y-76401371D02*
X200742915Y-74901371D01*
X201142915Y-76401371D01*
X202228629Y-76258514D02*
X202171486Y-76329943D01*
X202000057Y-76401371D01*
X201885771Y-76401371D01*
X201714343Y-76329943D01*
X201600057Y-76187086D01*
X201542914Y-76044229D01*
X201485771Y-75758514D01*
X201485771Y-75544229D01*
X201542914Y-75258514D01*
X201600057Y-75115657D01*
X201714343Y-74972800D01*
X201885771Y-74901371D01*
X202000057Y-74901371D01*
X202171486Y-74972800D01*
X202228629Y-75044229D01*
X202742914Y-76401371D02*
X202742914Y-74901371D01*
X203428629Y-76401371D02*
X202914343Y-75544229D01*
X203428629Y-74901371D02*
X202742914Y-75758514D01*
X199314342Y-78165657D02*
X199485771Y-78237086D01*
X199542914Y-78308514D01*
X199600057Y-78451371D01*
X199600057Y-78665657D01*
X199542914Y-78808514D01*
X199485771Y-78879943D01*
X199371485Y-78951371D01*
X198914342Y-78951371D01*
X198914342Y-77451371D01*
X199314342Y-77451371D01*
X199428628Y-77522800D01*
X199485771Y-77594229D01*
X199542914Y-77737086D01*
X199542914Y-77879943D01*
X199485771Y-78022800D01*
X199428628Y-78094229D01*
X199314342Y-78165657D01*
X198914342Y-78165657D01*
X200800057Y-78951371D02*
X200400057Y-78237086D01*
X200114342Y-78951371D02*
X200114342Y-77451371D01*
X200571485Y-77451371D01*
X200685771Y-77522800D01*
X200742914Y-77594229D01*
X200800057Y-77737086D01*
X200800057Y-77951371D01*
X200742914Y-78094229D01*
X200685771Y-78165657D01*
X200571485Y-78237086D01*
X200114342Y-78237086D01*
X201200057Y-77451371D02*
X201485771Y-78951371D01*
X201714342Y-77879943D01*
X201942914Y-78951371D01*
X202228628Y-77451371D01*
X202685771Y-78951371D02*
X202685771Y-77451371D01*
X203371486Y-78951371D01*
X203371486Y-77451371D01*
X201142915Y-81501371D02*
X200742915Y-80787086D01*
X200457200Y-81501371D02*
X200457200Y-80001371D01*
X200914343Y-80001371D01*
X201028629Y-80072800D01*
X201085772Y-80144229D01*
X201142915Y-80287086D01*
X201142915Y-80501371D01*
X201085772Y-80644229D01*
X201028629Y-80715657D01*
X200914343Y-80787086D01*
X200457200Y-80787086D01*
X201657200Y-80715657D02*
X202057200Y-80715657D01*
X202228629Y-81501371D02*
X201657200Y-81501371D01*
X201657200Y-80001371D01*
X202228629Y-80001371D01*
X202742914Y-81501371D02*
X202742914Y-80001371D01*
X203028629Y-80001371D01*
X203200057Y-80072800D01*
X203314343Y-80215657D01*
X203371486Y-80358514D01*
X203428629Y-80644229D01*
X203428629Y-80858514D01*
X203371486Y-81144229D01*
X203314343Y-81287086D01*
X203200057Y-81429943D01*
X203028629Y-81501371D01*
X202742914Y-81501371D01*
X199257200Y-82551371D02*
X199485771Y-82551371D01*
X199600057Y-82622800D01*
X199714343Y-82765657D01*
X199771485Y-83051371D01*
X199771485Y-83551371D01*
X199714343Y-83837086D01*
X199600057Y-83979943D01*
X199485771Y-84051371D01*
X199257200Y-84051371D01*
X199142914Y-83979943D01*
X199028628Y-83837086D01*
X198971485Y-83551371D01*
X198971485Y-83051371D01*
X199028628Y-82765657D01*
X199142914Y-82622800D01*
X199257200Y-82551371D01*
X200971486Y-84051371D02*
X200571486Y-83337086D01*
X200285771Y-84051371D02*
X200285771Y-82551371D01*
X200742914Y-82551371D01*
X200857200Y-82622800D01*
X200914343Y-82694229D01*
X200971486Y-82837086D01*
X200971486Y-83051371D01*
X200914343Y-83194229D01*
X200857200Y-83265657D01*
X200742914Y-83337086D01*
X200285771Y-83337086D01*
X201485771Y-84051371D02*
X201485771Y-82551371D01*
X202171486Y-84051371D01*
X202171486Y-82551371D01*
X203371486Y-82622800D02*
X203257200Y-82551371D01*
X203085771Y-82551371D01*
X202914343Y-82622800D01*
X202800057Y-82765657D01*
X202742914Y-82908514D01*
X202685771Y-83194229D01*
X202685771Y-83408514D01*
X202742914Y-83694229D01*
X202800057Y-83837086D01*
X202914343Y-83979943D01*
X203085771Y-84051371D01*
X203200057Y-84051371D01*
X203371486Y-83979943D01*
X203428629Y-83908514D01*
X203428629Y-83408514D01*
X203200057Y-83408514D01*
X198742914Y-85887086D02*
X198742914Y-86601371D01*
X198342914Y-85101371D02*
X198742914Y-85887086D01*
X199142914Y-85101371D01*
X199542913Y-85815657D02*
X199942913Y-85815657D01*
X200114342Y-86601371D02*
X199542913Y-86601371D01*
X199542913Y-85101371D01*
X200114342Y-85101371D01*
X201200056Y-86601371D02*
X200628627Y-86601371D01*
X200628627Y-85101371D01*
X202171485Y-86601371D02*
X201600056Y-86601371D01*
X201600056Y-85101371D01*
X202457200Y-85101371D02*
X202742914Y-86601371D01*
X202971485Y-85529943D01*
X203200057Y-86601371D01*
X203485771Y-85101371D01*
X198742915Y-87722800D02*
X198628629Y-87651371D01*
X198457200Y-87651371D01*
X198285772Y-87722800D01*
X198171486Y-87865657D01*
X198114343Y-88008514D01*
X198057200Y-88294229D01*
X198057200Y-88508514D01*
X198114343Y-88794229D01*
X198171486Y-88937086D01*
X198285772Y-89079943D01*
X198457200Y-89151371D01*
X198571486Y-89151371D01*
X198742915Y-89079943D01*
X198800058Y-89008514D01*
X198800058Y-88508514D01*
X198571486Y-88508514D01*
X200000058Y-89151371D02*
X199600058Y-88437086D01*
X199314343Y-89151371D02*
X199314343Y-87651371D01*
X199771486Y-87651371D01*
X199885772Y-87722800D01*
X199942915Y-87794229D01*
X200000058Y-87937086D01*
X200000058Y-88151371D01*
X199942915Y-88294229D01*
X199885772Y-88365657D01*
X199771486Y-88437086D01*
X199314343Y-88437086D01*
X200514343Y-88365657D02*
X200914343Y-88365657D01*
X201085772Y-89151371D02*
X200514343Y-89151371D01*
X200514343Y-87651371D01*
X201085772Y-87651371D01*
X201600057Y-88365657D02*
X202000057Y-88365657D01*
X202171486Y-89151371D02*
X201600057Y-89151371D01*
X201600057Y-87651371D01*
X202171486Y-87651371D01*
X202685771Y-89151371D02*
X202685771Y-87651371D01*
X203371486Y-89151371D01*
X203371486Y-87651371D01*
X198685771Y-90915657D02*
X198857200Y-90987086D01*
X198914343Y-91058514D01*
X198971486Y-91201371D01*
X198971486Y-91415657D01*
X198914343Y-91558514D01*
X198857200Y-91629943D01*
X198742914Y-91701371D01*
X198285771Y-91701371D01*
X198285771Y-90201371D01*
X198685771Y-90201371D01*
X198800057Y-90272800D01*
X198857200Y-90344229D01*
X198914343Y-90487086D01*
X198914343Y-90629943D01*
X198857200Y-90772800D01*
X198800057Y-90844229D01*
X198685771Y-90915657D01*
X198285771Y-90915657D01*
X200057200Y-91701371D02*
X199485771Y-91701371D01*
X199485771Y-90201371D01*
X200457200Y-90201371D02*
X200457200Y-91415657D01*
X200514343Y-91558514D01*
X200571486Y-91629943D01*
X200685772Y-91701371D01*
X200914343Y-91701371D01*
X201028629Y-91629943D01*
X201085772Y-91558514D01*
X201142915Y-91415657D01*
X201142915Y-90201371D01*
X201714343Y-90915657D02*
X202114343Y-90915657D01*
X202285772Y-91701371D02*
X201714343Y-91701371D01*
X201714343Y-90201371D01*
X202285772Y-90201371D01*
X202742914Y-90344229D02*
X202800057Y-90272800D01*
X202914343Y-90201371D01*
X203200057Y-90201371D01*
X203314343Y-90272800D01*
X203371486Y-90344229D01*
X203428629Y-90487086D01*
X203428629Y-90629943D01*
X203371486Y-90844229D01*
X202685772Y-91701371D01*
X203428629Y-91701371D01*
X197942914Y-94251371D02*
X197942914Y-92751371D01*
X198400057Y-92751371D01*
X198514343Y-92822800D01*
X198571486Y-92894229D01*
X198628629Y-93037086D01*
X198628629Y-93251371D01*
X198571486Y-93394229D01*
X198514343Y-93465657D01*
X198400057Y-93537086D01*
X197942914Y-93537086D01*
X199142914Y-92751371D02*
X199142914Y-93965657D01*
X199200057Y-94108514D01*
X199257200Y-94179943D01*
X199371486Y-94251371D01*
X199600057Y-94251371D01*
X199714343Y-94179943D01*
X199771486Y-94108514D01*
X199828629Y-93965657D01*
X199828629Y-92751371D01*
X201085772Y-94251371D02*
X200685772Y-93537086D01*
X200400057Y-94251371D02*
X200400057Y-92751371D01*
X200857200Y-92751371D01*
X200971486Y-92822800D01*
X201028629Y-92894229D01*
X201085772Y-93037086D01*
X201085772Y-93251371D01*
X201028629Y-93394229D01*
X200971486Y-93465657D01*
X200857200Y-93537086D01*
X200400057Y-93537086D01*
X201600057Y-94251371D02*
X201600057Y-92751371D01*
X202057200Y-92751371D01*
X202171486Y-92822800D01*
X202228629Y-92894229D01*
X202285772Y-93037086D01*
X202285772Y-93251371D01*
X202228629Y-93394229D01*
X202171486Y-93465657D01*
X202057200Y-93537086D01*
X201600057Y-93537086D01*
X202742914Y-92894229D02*
X202800057Y-92822800D01*
X202914343Y-92751371D01*
X203200057Y-92751371D01*
X203314343Y-92822800D01*
X203371486Y-92894229D01*
X203428629Y-93037086D01*
X203428629Y-93179943D01*
X203371486Y-93394229D01*
X202685772Y-94251371D01*
X203428629Y-94251371D01*
X198914344Y-95372800D02*
X198800058Y-95301371D01*
X198628629Y-95301371D01*
X198457201Y-95372800D01*
X198342915Y-95515657D01*
X198285772Y-95658514D01*
X198228629Y-95944229D01*
X198228629Y-96158514D01*
X198285772Y-96444229D01*
X198342915Y-96587086D01*
X198457201Y-96729943D01*
X198628629Y-96801371D01*
X198742915Y-96801371D01*
X198914344Y-96729943D01*
X198971487Y-96658514D01*
X198971487Y-96158514D01*
X198742915Y-96158514D01*
X200171487Y-96801371D02*
X199771487Y-96087086D01*
X199485772Y-96801371D02*
X199485772Y-95301371D01*
X199942915Y-95301371D01*
X200057201Y-95372800D01*
X200114344Y-95444229D01*
X200171487Y-95587086D01*
X200171487Y-95801371D01*
X200114344Y-95944229D01*
X200057201Y-96015657D01*
X199942915Y-96087086D01*
X199485772Y-96087086D01*
X200685772Y-96015657D02*
X201085772Y-96015657D01*
X201257201Y-96801371D02*
X200685772Y-96801371D01*
X200685772Y-95301371D01*
X201257201Y-95301371D01*
X202000058Y-96087086D02*
X202000058Y-96801371D01*
X201600058Y-95301371D02*
X202000058Y-96087086D01*
X202400058Y-95301371D01*
X202742914Y-95444229D02*
X202800057Y-95372800D01*
X202914343Y-95301371D01*
X203200057Y-95301371D01*
X203314343Y-95372800D01*
X203371486Y-95444229D01*
X203428629Y-95587086D01*
X203428629Y-95729943D01*
X203371486Y-95944229D01*
X202685772Y-96801371D01*
X203428629Y-96801371D01*
X128214286Y-102544857D02*
X128142857Y-102630571D01*
X127928571Y-102716286D01*
X127785714Y-102716286D01*
X127571429Y-102630571D01*
X127428571Y-102459143D01*
X127357143Y-102287714D01*
X127285714Y-101944857D01*
X127285714Y-101687714D01*
X127357143Y-101344857D01*
X127428571Y-101173429D01*
X127571429Y-101002000D01*
X127785714Y-100916286D01*
X127928571Y-100916286D01*
X128142857Y-101002000D01*
X128214286Y-101087714D01*
X129142857Y-100916286D02*
X129428571Y-100916286D01*
X129571429Y-101002000D01*
X129714286Y-101173429D01*
X129785714Y-101516286D01*
X129785714Y-102116286D01*
X129714286Y-102459143D01*
X129571429Y-102630571D01*
X129428571Y-102716286D01*
X129142857Y-102716286D01*
X129000000Y-102630571D01*
X128857143Y-102459143D01*
X128785714Y-102116286D01*
X128785714Y-101516286D01*
X128857143Y-101173429D01*
X129000000Y-101002000D01*
X129142857Y-100916286D01*
X130428572Y-102716286D02*
X130428572Y-100916286D01*
X130928572Y-102202000D01*
X131428572Y-100916286D01*
X131428572Y-102716286D01*
X132071429Y-102630571D02*
X132285715Y-102716286D01*
X132642858Y-102716286D01*
X132785715Y-102630571D01*
X132857144Y-102544857D01*
X132928572Y-102373429D01*
X132928572Y-102202000D01*
X132857144Y-102030571D01*
X132785715Y-101944857D01*
X132642858Y-101859143D01*
X132357144Y-101773429D01*
X132214286Y-101687714D01*
X132142858Y-101602000D01*
X132071429Y-101430571D01*
X132071429Y-101259143D01*
X132142858Y-101087714D01*
X132214286Y-101002000D01*
X132357144Y-100916286D01*
X132714286Y-100916286D01*
X132928572Y-101002000D01*
X133571429Y-102716286D02*
X133571429Y-100916286D01*
X134142857Y-100916286D01*
X134285715Y-101002000D01*
X134357143Y-101087714D01*
X134428572Y-101259143D01*
X134428572Y-101516286D01*
X134357143Y-101687714D01*
X134285715Y-101773429D01*
X134142857Y-101859143D01*
X133571429Y-101859143D01*
X135071429Y-101773429D02*
X135571429Y-101773429D01*
X135785715Y-102716286D02*
X135071429Y-102716286D01*
X135071429Y-100916286D01*
X135785715Y-100916286D01*
X137285715Y-102544857D02*
X137214286Y-102630571D01*
X137000000Y-102716286D01*
X136857143Y-102716286D01*
X136642858Y-102630571D01*
X136500000Y-102459143D01*
X136428572Y-102287714D01*
X136357143Y-101944857D01*
X136357143Y-101687714D01*
X136428572Y-101344857D01*
X136500000Y-101173429D01*
X136642858Y-101002000D01*
X136857143Y-100916286D01*
X137000000Y-100916286D01*
X137214286Y-101002000D01*
X137285715Y-101087714D01*
X128000000Y-104516286D02*
X128000000Y-105716286D01*
X127642857Y-103830571D02*
X127285714Y-105116286D01*
X128214286Y-105116286D01*
X129071428Y-103916286D02*
X129214285Y-103916286D01*
X129357142Y-104002000D01*
X129428571Y-104087714D01*
X129500000Y-104259143D01*
X129571428Y-104602000D01*
X129571428Y-105030571D01*
X129500000Y-105373429D01*
X129428571Y-105544857D01*
X129357142Y-105630571D01*
X129214285Y-105716286D01*
X129071428Y-105716286D01*
X128928571Y-105630571D01*
X128857142Y-105544857D01*
X128785714Y-105373429D01*
X128714285Y-105030571D01*
X128714285Y-104602000D01*
X128785714Y-104259143D01*
X128857142Y-104087714D01*
X128928571Y-104002000D01*
X129071428Y-103916286D01*
X131285713Y-103830571D02*
X129999999Y-106144857D01*
X132000000Y-104687714D02*
X131857142Y-104602000D01*
X131785714Y-104516286D01*
X131714285Y-104344857D01*
X131714285Y-104259143D01*
X131785714Y-104087714D01*
X131857142Y-104002000D01*
X132000000Y-103916286D01*
X132285714Y-103916286D01*
X132428571Y-104002000D01*
X132500000Y-104087714D01*
X132571428Y-104259143D01*
X132571428Y-104344857D01*
X132500000Y-104516286D01*
X132428571Y-104602000D01*
X132285714Y-104687714D01*
X132000000Y-104687714D01*
X131857142Y-104773429D01*
X131785714Y-104859143D01*
X131714285Y-105030571D01*
X131714285Y-105373429D01*
X131785714Y-105544857D01*
X131857142Y-105630571D01*
X132000000Y-105716286D01*
X132285714Y-105716286D01*
X132428571Y-105630571D01*
X132500000Y-105544857D01*
X132571428Y-105373429D01*
X132571428Y-105030571D01*
X132500000Y-104859143D01*
X132428571Y-104773429D01*
X132285714Y-104687714D01*
X133499999Y-103916286D02*
X133642856Y-103916286D01*
X133785713Y-104002000D01*
X133857142Y-104087714D01*
X133928571Y-104259143D01*
X133999999Y-104602000D01*
X133999999Y-105030571D01*
X133928571Y-105373429D01*
X133857142Y-105544857D01*
X133785713Y-105630571D01*
X133642856Y-105716286D01*
X133499999Y-105716286D01*
X133357142Y-105630571D01*
X133285713Y-105544857D01*
X133214285Y-105373429D01*
X133142856Y-105030571D01*
X133142856Y-104602000D01*
X133214285Y-104259143D01*
X133285713Y-104087714D01*
X133357142Y-104002000D01*
X133499999Y-103916286D01*
X134642856Y-105030571D02*
X135785713Y-105030571D01*
X136428570Y-105630571D02*
X136642856Y-105716286D01*
X136999999Y-105716286D01*
X137142856Y-105630571D01*
X137214285Y-105544857D01*
X137285713Y-105373429D01*
X137285713Y-105202000D01*
X137214285Y-105030571D01*
X137142856Y-104944857D01*
X136999999Y-104859143D01*
X136714285Y-104773429D01*
X136571427Y-104687714D01*
X136499999Y-104602000D01*
X136428570Y-104430571D01*
X136428570Y-104259143D01*
X136499999Y-104087714D01*
X136571427Y-104002000D01*
X136714285Y-103916286D01*
X137071427Y-103916286D01*
X137285713Y-104002000D01*
X137857141Y-104087714D02*
X137928570Y-104002000D01*
X138071427Y-103916286D01*
X138428570Y-103916286D01*
X138571427Y-104002000D01*
X138642856Y-104087714D01*
X138714284Y-104259143D01*
X138714284Y-104430571D01*
X138642856Y-104687714D01*
X137785713Y-105716286D01*
X138714284Y-105716286D01*
X127785714Y-109402000D02*
X127714286Y-109316286D01*
X127571429Y-109059143D01*
X127500000Y-108887714D01*
X127428571Y-108630571D01*
X127357143Y-108202000D01*
X127357143Y-107859143D01*
X127428571Y-107430571D01*
X127500000Y-107173429D01*
X127571429Y-107002000D01*
X127714286Y-106744857D01*
X127785714Y-106659143D01*
X129214286Y-108544857D02*
X129142857Y-108630571D01*
X128928571Y-108716286D01*
X128785714Y-108716286D01*
X128571429Y-108630571D01*
X128428571Y-108459143D01*
X128357143Y-108287714D01*
X128285714Y-107944857D01*
X128285714Y-107687714D01*
X128357143Y-107344857D01*
X128428571Y-107173429D01*
X128571429Y-107002000D01*
X128785714Y-106916286D01*
X128928571Y-106916286D01*
X129142857Y-107002000D01*
X129214286Y-107087714D01*
X130571429Y-108716286D02*
X129857143Y-108716286D01*
X129857143Y-106916286D01*
X131357143Y-106916286D02*
X131642857Y-106916286D01*
X131785715Y-107002000D01*
X131928572Y-107173429D01*
X132000000Y-107516286D01*
X132000000Y-108116286D01*
X131928572Y-108459143D01*
X131785715Y-108630571D01*
X131642857Y-108716286D01*
X131357143Y-108716286D01*
X131214286Y-108630571D01*
X131071429Y-108459143D01*
X131000000Y-108116286D01*
X131000000Y-107516286D01*
X131071429Y-107173429D01*
X131214286Y-107002000D01*
X131357143Y-106916286D01*
X132642858Y-108716286D02*
X132642858Y-106916286D01*
X133500001Y-108716286D01*
X133500001Y-106916286D01*
X134214287Y-107773429D02*
X134714287Y-107773429D01*
X134928573Y-108716286D02*
X134214287Y-108716286D01*
X134214287Y-106916286D01*
X134928573Y-106916286D01*
X135428573Y-109402000D02*
X135500001Y-109316286D01*
X135642858Y-109059143D01*
X135714287Y-108887714D01*
X135785716Y-108630571D01*
X135857144Y-108202000D01*
X135857144Y-107859143D01*
X135785716Y-107430571D01*
X135714287Y-107173429D01*
X135642858Y-107002000D01*
X135500001Y-106744857D01*
X135428573Y-106659143D01*
D13*
X184152600Y-82445800D02*
X184152600Y-81271800D01*
X185874600Y-82445800D02*
X185874600Y-81271800D01*
X139245400Y-69237800D02*
X139245400Y-68063800D01*
X140967400Y-69237800D02*
X140967400Y-68063800D01*
X162151000Y-68171000D02*
X160977000Y-68171000D01*
X162151000Y-66449000D02*
X160977000Y-66449000D01*
X150629000Y-60896200D02*
X150629000Y-63716200D01*
X150629000Y-63716200D02*
X155949000Y-63716200D01*
X155949000Y-63716200D02*
X155949000Y-60896200D01*
X155949000Y-60896200D02*
X150629000Y-60896200D01*
X150559000Y-62306200D02*
X150629000Y-62306200D01*
X156019000Y-62306200D02*
X155949000Y-62306200D01*
X151469000Y-60896200D02*
X151469000Y-63716200D01*
X184267800Y-97704600D02*
X184267800Y-100364600D01*
X194487800Y-97704600D02*
X184267800Y-97704600D01*
X194487800Y-100364600D02*
X184267800Y-100364600D01*
X194487800Y-97704600D02*
X194487800Y-100364600D01*
X195757800Y-97704600D02*
X197087800Y-97704600D01*
X197087800Y-97704600D02*
X197087800Y-99034600D01*
X184166200Y-107458200D02*
X184166200Y-110118200D01*
X194386200Y-107458200D02*
X184166200Y-107458200D01*
X194386200Y-110118200D02*
X184166200Y-110118200D01*
X194386200Y-107458200D02*
X194386200Y-110118200D01*
X195656200Y-107458200D02*
X196986200Y-107458200D01*
X196986200Y-107458200D02*
X196986200Y-108788200D01*
X158334400Y-97653800D02*
X158334400Y-100313800D01*
X178714400Y-97653800D02*
X158334400Y-97653800D01*
X178714400Y-100313800D02*
X158334400Y-100313800D01*
X178714400Y-97653800D02*
X178714400Y-100313800D01*
X179984400Y-97653800D02*
X181314400Y-97653800D01*
X181314400Y-97653800D02*
X181314400Y-98983800D01*
X158461400Y-107458200D02*
X158461400Y-110118200D01*
X178841400Y-107458200D02*
X158461400Y-107458200D01*
X178841400Y-110118200D02*
X158461400Y-110118200D01*
X178841400Y-107458200D02*
X178841400Y-110118200D01*
X180111400Y-107458200D02*
X181441400Y-107458200D01*
X181441400Y-107458200D02*
X181441400Y-108788200D01*
X140554400Y-97628400D02*
X140554400Y-100288400D01*
X153314400Y-97628400D02*
X140554400Y-97628400D01*
X153314400Y-100288400D02*
X140554400Y-100288400D01*
X153314400Y-97628400D02*
X153314400Y-100288400D01*
X154584400Y-97628400D02*
X155914400Y-97628400D01*
X155914400Y-97628400D02*
X155914400Y-98958400D01*
X140529000Y-107458200D02*
X140529000Y-110118200D01*
X153289000Y-107458200D02*
X140529000Y-107458200D01*
X153289000Y-110118200D02*
X140529000Y-110118200D01*
X153289000Y-107458200D02*
X153289000Y-110118200D01*
X154559000Y-107458200D02*
X155889000Y-107458200D01*
X155889000Y-107458200D02*
X155889000Y-108788200D01*
X203902000Y-97240400D02*
X206562000Y-97240400D01*
X203902000Y-66700400D02*
X203902000Y-97240400D01*
X206562000Y-66700400D02*
X206562000Y-97240400D01*
X203902000Y-66700400D02*
X206562000Y-66700400D01*
X203902000Y-65430400D02*
X203902000Y-64100400D01*
X203902000Y-64100400D02*
X205232000Y-64100400D01*
X200727000Y-106035800D02*
X200727000Y-108695800D01*
X203327000Y-106035800D02*
X200727000Y-106035800D01*
X203327000Y-108695800D02*
X200727000Y-108695800D01*
X203327000Y-106035800D02*
X203327000Y-108695800D01*
X204597000Y-106035800D02*
X205927000Y-106035800D01*
X205927000Y-106035800D02*
X205927000Y-107365800D01*
X139843200Y-61103200D02*
X139843200Y-63763200D01*
X142443200Y-61103200D02*
X139843200Y-61103200D01*
X142443200Y-63763200D02*
X139843200Y-63763200D01*
X142443200Y-61103200D02*
X142443200Y-63763200D01*
X143713200Y-61103200D02*
X145043200Y-61103200D01*
X145043200Y-61103200D02*
X145043200Y-62433200D01*
X133105200Y-98459600D02*
X133105200Y-95799600D01*
X130505200Y-98459600D02*
X133105200Y-98459600D01*
X130505200Y-95799600D02*
X133105200Y-95799600D01*
X130505200Y-98459600D02*
X130505200Y-95799600D01*
X129235200Y-98459600D02*
X127905200Y-98459600D01*
X127905200Y-98459600D02*
X127905200Y-97129600D01*
X175726400Y-63839400D02*
X175726400Y-61179400D01*
X173126400Y-63839400D02*
X175726400Y-63839400D01*
X173126400Y-61179400D02*
X175726400Y-61179400D01*
X173126400Y-63839400D02*
X173126400Y-61179400D01*
X171856400Y-63839400D02*
X170526400Y-63839400D01*
X170526400Y-63839400D02*
X170526400Y-62509400D01*
X166379200Y-63737800D02*
X166379200Y-61077800D01*
X163779200Y-63737800D02*
X166379200Y-63737800D01*
X163779200Y-61077800D02*
X166379200Y-61077800D01*
X163779200Y-63737800D02*
X163779200Y-61077800D01*
X162509200Y-63737800D02*
X161179200Y-63737800D01*
X161179200Y-63737800D02*
X161179200Y-62407800D01*
X129581600Y-61255600D02*
X129581600Y-63915600D01*
X132181600Y-61255600D02*
X129581600Y-61255600D01*
X132181600Y-63915600D02*
X129581600Y-63915600D01*
X132181600Y-61255600D02*
X132181600Y-63915600D01*
X133451600Y-61255600D02*
X134781600Y-61255600D01*
X134781600Y-61255600D02*
X134781600Y-62585600D01*
X134096000Y-86784800D02*
X135466000Y-86784800D01*
X135466000Y-86784800D02*
X135466000Y-68764800D01*
X135466000Y-68764800D02*
X130726000Y-68764800D01*
X130726000Y-68764800D02*
X130726000Y-86784800D01*
X130726000Y-86784800D02*
X132096000Y-86784800D01*
X132096000Y-86784800D02*
G75*
G02X134096000Y-86784800I1000000J0D01*
G01*
X148497800Y-89324800D02*
X149867800Y-89324800D01*
X149867800Y-89324800D02*
X149867800Y-68764800D01*
X149867800Y-68764800D02*
X145127800Y-68764800D01*
X145127800Y-68764800D02*
X145127800Y-89324800D01*
X145127800Y-89324800D02*
X146497800Y-89324800D01*
X146497800Y-89324800D02*
G75*
G02X148497800Y-89324800I1000000J0D01*
G01*
X162645600Y-89502600D02*
X164015600Y-89502600D01*
X164015600Y-89502600D02*
X164015600Y-68942600D01*
X164015600Y-68942600D02*
X159275600Y-68942600D01*
X159275600Y-68942600D02*
X159275600Y-89502600D01*
X159275600Y-89502600D02*
X160645600Y-89502600D01*
X160645600Y-89502600D02*
G75*
G02X162645600Y-89502600I1000000J0D01*
G01*
X177758600Y-89578800D02*
X179128600Y-89578800D01*
X179128600Y-89578800D02*
X179128600Y-69018800D01*
X179128600Y-69018800D02*
X174388600Y-69018800D01*
X174388600Y-69018800D02*
X174388600Y-89578800D01*
X174388600Y-89578800D02*
X175758600Y-89578800D01*
X175758600Y-89578800D02*
G75*
G02X177758600Y-89578800I1000000J0D01*
G01*
X193024000Y-89655000D02*
X194394000Y-89655000D01*
X194394000Y-89655000D02*
X194394000Y-69095000D01*
X194394000Y-69095000D02*
X189654000Y-69095000D01*
X189654000Y-69095000D02*
X189654000Y-89655000D01*
X189654000Y-89655000D02*
X191024000Y-89655000D01*
X191024000Y-89655000D02*
G75*
G02X193024000Y-89655000I1000000J0D01*
G01*
X137042600Y-90159400D02*
X137042600Y-90489400D01*
X137042600Y-90489400D02*
X130622600Y-90489400D01*
X130622600Y-90489400D02*
X130622600Y-90159400D01*
X137042600Y-88199400D02*
X137042600Y-87869400D01*
X137042600Y-87869400D02*
X130622600Y-87869400D01*
X130622600Y-87869400D02*
X130622600Y-88199400D01*
X137144200Y-93969400D02*
X137144200Y-94299400D01*
X137144200Y-94299400D02*
X130724200Y-94299400D01*
X130724200Y-94299400D02*
X130724200Y-93969400D01*
X137144200Y-92009400D02*
X137144200Y-91679400D01*
X137144200Y-91679400D02*
X130724200Y-91679400D01*
X130724200Y-91679400D02*
X130724200Y-92009400D01*
D14*
X184796134Y-85396343D02*
X184748515Y-85443962D01*
X184605658Y-85491581D01*
X184510420Y-85491581D01*
X184367562Y-85443962D01*
X184272324Y-85348724D01*
X184224705Y-85253486D01*
X184177086Y-85063010D01*
X184177086Y-84920152D01*
X184224705Y-84729676D01*
X184272324Y-84634438D01*
X184367562Y-84539200D01*
X184510420Y-84491581D01*
X184605658Y-84491581D01*
X184748515Y-84539200D01*
X184796134Y-84586819D01*
X185748515Y-85491581D02*
X185177086Y-85491581D01*
X185462800Y-85491581D02*
X185462800Y-84491581D01*
X185367562Y-84634438D01*
X185272324Y-84729676D01*
X185177086Y-84777295D01*
X139838134Y-72137543D02*
X139790515Y-72185162D01*
X139647658Y-72232781D01*
X139552420Y-72232781D01*
X139409562Y-72185162D01*
X139314324Y-72089924D01*
X139266705Y-71994686D01*
X139219086Y-71804210D01*
X139219086Y-71661352D01*
X139266705Y-71470876D01*
X139314324Y-71375638D01*
X139409562Y-71280400D01*
X139552420Y-71232781D01*
X139647658Y-71232781D01*
X139790515Y-71280400D01*
X139838134Y-71328019D01*
X140219086Y-71328019D02*
X140266705Y-71280400D01*
X140361943Y-71232781D01*
X140600039Y-71232781D01*
X140695277Y-71280400D01*
X140742896Y-71328019D01*
X140790515Y-71423257D01*
X140790515Y-71518495D01*
X140742896Y-71661352D01*
X140171467Y-72232781D01*
X140790515Y-72232781D01*
X164831734Y-67717943D02*
X164784115Y-67765562D01*
X164641258Y-67813181D01*
X164546020Y-67813181D01*
X164403162Y-67765562D01*
X164307924Y-67670324D01*
X164260305Y-67575086D01*
X164212686Y-67384610D01*
X164212686Y-67241752D01*
X164260305Y-67051276D01*
X164307924Y-66956038D01*
X164403162Y-66860800D01*
X164546020Y-66813181D01*
X164641258Y-66813181D01*
X164784115Y-66860800D01*
X164831734Y-66908419D01*
X165165067Y-66813181D02*
X165784115Y-66813181D01*
X165450781Y-67194133D01*
X165593639Y-67194133D01*
X165688877Y-67241752D01*
X165736496Y-67289371D01*
X165784115Y-67384610D01*
X165784115Y-67622705D01*
X165736496Y-67717943D01*
X165688877Y-67765562D01*
X165593639Y-67813181D01*
X165307924Y-67813181D01*
X165212686Y-67765562D01*
X165165067Y-67717943D01*
X148563105Y-65222381D02*
X148563105Y-64222381D01*
X148801200Y-64222381D01*
X148944058Y-64270000D01*
X149039296Y-64365238D01*
X149086915Y-64460476D01*
X149134534Y-64650952D01*
X149134534Y-64793810D01*
X149086915Y-64984286D01*
X149039296Y-65079524D01*
X148944058Y-65174762D01*
X148801200Y-65222381D01*
X148563105Y-65222381D01*
X150086915Y-65222381D02*
X149515486Y-65222381D01*
X149801200Y-65222381D02*
X149801200Y-64222381D01*
X149705962Y-64365238D01*
X149610724Y-64460476D01*
X149515486Y-64508095D01*
X198540181Y-99772695D02*
X197540181Y-99772695D01*
X197540181Y-99391742D01*
X197587800Y-99296504D01*
X197635419Y-99248885D01*
X197730657Y-99201266D01*
X197873514Y-99201266D01*
X197968752Y-99248885D01*
X198016371Y-99296504D01*
X198063990Y-99391742D01*
X198063990Y-99772695D01*
X198540181Y-98248885D02*
X198540181Y-98820314D01*
X198540181Y-98534600D02*
X197540181Y-98534600D01*
X197683038Y-98629838D01*
X197778276Y-98725076D01*
X197825895Y-98820314D01*
X198438581Y-109526295D02*
X197438581Y-109526295D01*
X197438581Y-109145342D01*
X197486200Y-109050104D01*
X197533819Y-109002485D01*
X197629057Y-108954866D01*
X197771914Y-108954866D01*
X197867152Y-109002485D01*
X197914771Y-109050104D01*
X197962390Y-109145342D01*
X197962390Y-109526295D01*
X197533819Y-108573914D02*
X197486200Y-108526295D01*
X197438581Y-108431057D01*
X197438581Y-108192961D01*
X197486200Y-108097723D01*
X197533819Y-108050104D01*
X197629057Y-108002485D01*
X197724295Y-108002485D01*
X197867152Y-108050104D01*
X198438581Y-108621533D01*
X198438581Y-108002485D01*
X182766781Y-99721895D02*
X181766781Y-99721895D01*
X181766781Y-99340942D01*
X181814400Y-99245704D01*
X181862019Y-99198085D01*
X181957257Y-99150466D01*
X182100114Y-99150466D01*
X182195352Y-99198085D01*
X182242971Y-99245704D01*
X182290590Y-99340942D01*
X182290590Y-99721895D01*
X181766781Y-98817133D02*
X181766781Y-98198085D01*
X182147733Y-98531419D01*
X182147733Y-98388561D01*
X182195352Y-98293323D01*
X182242971Y-98245704D01*
X182338210Y-98198085D01*
X182576305Y-98198085D01*
X182671543Y-98245704D01*
X182719162Y-98293323D01*
X182766781Y-98388561D01*
X182766781Y-98674276D01*
X182719162Y-98769514D01*
X182671543Y-98817133D01*
X182893781Y-109526295D02*
X181893781Y-109526295D01*
X181893781Y-109145342D01*
X181941400Y-109050104D01*
X181989019Y-109002485D01*
X182084257Y-108954866D01*
X182227114Y-108954866D01*
X182322352Y-109002485D01*
X182369971Y-109050104D01*
X182417590Y-109145342D01*
X182417590Y-109526295D01*
X182227114Y-108097723D02*
X182893781Y-108097723D01*
X181846162Y-108335819D02*
X182560448Y-108573914D01*
X182560448Y-107954866D01*
X157366781Y-99696495D02*
X156366781Y-99696495D01*
X156366781Y-99315542D01*
X156414400Y-99220304D01*
X156462019Y-99172685D01*
X156557257Y-99125066D01*
X156700114Y-99125066D01*
X156795352Y-99172685D01*
X156842971Y-99220304D01*
X156890590Y-99315542D01*
X156890590Y-99696495D01*
X156366781Y-98220304D02*
X156366781Y-98696495D01*
X156842971Y-98744114D01*
X156795352Y-98696495D01*
X156747733Y-98601257D01*
X156747733Y-98363161D01*
X156795352Y-98267923D01*
X156842971Y-98220304D01*
X156938210Y-98172685D01*
X157176305Y-98172685D01*
X157271543Y-98220304D01*
X157319162Y-98267923D01*
X157366781Y-98363161D01*
X157366781Y-98601257D01*
X157319162Y-98696495D01*
X157271543Y-98744114D01*
X157341381Y-109526295D02*
X156341381Y-109526295D01*
X156341381Y-109145342D01*
X156389000Y-109050104D01*
X156436619Y-109002485D01*
X156531857Y-108954866D01*
X156674714Y-108954866D01*
X156769952Y-109002485D01*
X156817571Y-109050104D01*
X156865190Y-109145342D01*
X156865190Y-109526295D01*
X156341381Y-108097723D02*
X156341381Y-108288200D01*
X156389000Y-108383438D01*
X156436619Y-108431057D01*
X156579476Y-108526295D01*
X156769952Y-108573914D01*
X157150905Y-108573914D01*
X157246143Y-108526295D01*
X157293762Y-108478676D01*
X157341381Y-108383438D01*
X157341381Y-108192961D01*
X157293762Y-108097723D01*
X157246143Y-108050104D01*
X157150905Y-108002485D01*
X156912810Y-108002485D01*
X156817571Y-108050104D01*
X156769952Y-108097723D01*
X156722333Y-108192961D01*
X156722333Y-108383438D01*
X156769952Y-108478676D01*
X156817571Y-108526295D01*
X156912810Y-108573914D01*
X204493905Y-63552781D02*
X204493905Y-62552781D01*
X204874858Y-62552781D01*
X204970096Y-62600400D01*
X205017715Y-62648019D01*
X205065334Y-62743257D01*
X205065334Y-62886114D01*
X205017715Y-62981352D01*
X204970096Y-63028971D01*
X204874858Y-63076590D01*
X204493905Y-63076590D01*
X205398667Y-62552781D02*
X206065334Y-62552781D01*
X205636762Y-63552781D01*
X207379381Y-108103895D02*
X206379381Y-108103895D01*
X206379381Y-107722942D01*
X206427000Y-107627704D01*
X206474619Y-107580085D01*
X206569857Y-107532466D01*
X206712714Y-107532466D01*
X206807952Y-107580085D01*
X206855571Y-107627704D01*
X206903190Y-107722942D01*
X206903190Y-108103895D01*
X206807952Y-106961038D02*
X206760333Y-107056276D01*
X206712714Y-107103895D01*
X206617476Y-107151514D01*
X206569857Y-107151514D01*
X206474619Y-107103895D01*
X206427000Y-107056276D01*
X206379381Y-106961038D01*
X206379381Y-106770561D01*
X206427000Y-106675323D01*
X206474619Y-106627704D01*
X206569857Y-106580085D01*
X206617476Y-106580085D01*
X206712714Y-106627704D01*
X206760333Y-106675323D01*
X206807952Y-106770561D01*
X206807952Y-106961038D01*
X206855571Y-107056276D01*
X206903190Y-107103895D01*
X206998429Y-107151514D01*
X207188905Y-107151514D01*
X207284143Y-107103895D01*
X207331762Y-107056276D01*
X207379381Y-106961038D01*
X207379381Y-106770561D01*
X207331762Y-106675323D01*
X207284143Y-106627704D01*
X207188905Y-106580085D01*
X206998429Y-106580085D01*
X206903190Y-106627704D01*
X206855571Y-106675323D01*
X206807952Y-106770561D01*
X146705581Y-63222095D02*
X145705581Y-63222095D01*
X145705581Y-62841142D01*
X145753200Y-62745904D01*
X145800819Y-62698285D01*
X145896057Y-62650666D01*
X146038914Y-62650666D01*
X146134152Y-62698285D01*
X146181771Y-62745904D01*
X146229390Y-62841142D01*
X146229390Y-63222095D01*
X146705581Y-62174476D02*
X146705581Y-61984000D01*
X146657962Y-61888761D01*
X146610343Y-61841142D01*
X146467486Y-61745904D01*
X146277010Y-61698285D01*
X145896057Y-61698285D01*
X145800819Y-61745904D01*
X145753200Y-61793523D01*
X145705581Y-61888761D01*
X145705581Y-62079238D01*
X145753200Y-62174476D01*
X145800819Y-62222095D01*
X145896057Y-62269714D01*
X146134152Y-62269714D01*
X146229390Y-62222095D01*
X146277010Y-62174476D01*
X146324629Y-62079238D01*
X146324629Y-61888761D01*
X146277010Y-61793523D01*
X146229390Y-61745904D01*
X146134152Y-61698285D01*
X127357581Y-98343886D02*
X126357581Y-98343886D01*
X126357581Y-97962933D01*
X126405200Y-97867695D01*
X126452819Y-97820076D01*
X126548057Y-97772457D01*
X126690914Y-97772457D01*
X126786152Y-97820076D01*
X126833771Y-97867695D01*
X126881390Y-97962933D01*
X126881390Y-98343886D01*
X127357581Y-96820076D02*
X127357581Y-97391505D01*
X127357581Y-97105791D02*
X126357581Y-97105791D01*
X126500438Y-97201029D01*
X126595676Y-97296267D01*
X126643295Y-97391505D01*
X126357581Y-96201029D02*
X126357581Y-96105790D01*
X126405200Y-96010552D01*
X126452819Y-95962933D01*
X126548057Y-95915314D01*
X126738533Y-95867695D01*
X126976629Y-95867695D01*
X127167105Y-95915314D01*
X127262343Y-95962933D01*
X127309962Y-96010552D01*
X127357581Y-96105790D01*
X127357581Y-96201029D01*
X127309962Y-96296267D01*
X127262343Y-96343886D01*
X127167105Y-96391505D01*
X126976629Y-96439124D01*
X126738533Y-96439124D01*
X126548057Y-96391505D01*
X126452819Y-96343886D01*
X126405200Y-96296267D01*
X126357581Y-96201029D01*
X169819581Y-63850686D02*
X168819581Y-63850686D01*
X168819581Y-63469733D01*
X168867200Y-63374495D01*
X168914819Y-63326876D01*
X169010057Y-63279257D01*
X169152914Y-63279257D01*
X169248152Y-63326876D01*
X169295771Y-63374495D01*
X169343390Y-63469733D01*
X169343390Y-63850686D01*
X169819581Y-62326876D02*
X169819581Y-62898305D01*
X169819581Y-62612591D02*
X168819581Y-62612591D01*
X168962438Y-62707829D01*
X169057676Y-62803067D01*
X169105295Y-62898305D01*
X169819581Y-61374495D02*
X169819581Y-61945924D01*
X169819581Y-61660210D02*
X168819581Y-61660210D01*
X168962438Y-61755448D01*
X169057676Y-61850686D01*
X169105295Y-61945924D01*
X160573981Y-63647486D02*
X159573981Y-63647486D01*
X159573981Y-63266533D01*
X159621600Y-63171295D01*
X159669219Y-63123676D01*
X159764457Y-63076057D01*
X159907314Y-63076057D01*
X160002552Y-63123676D01*
X160050171Y-63171295D01*
X160097790Y-63266533D01*
X160097790Y-63647486D01*
X160573981Y-62123676D02*
X160573981Y-62695105D01*
X160573981Y-62409391D02*
X159573981Y-62409391D01*
X159716838Y-62504629D01*
X159812076Y-62599867D01*
X159859695Y-62695105D01*
X159669219Y-61742724D02*
X159621600Y-61695105D01*
X159573981Y-61599867D01*
X159573981Y-61361771D01*
X159621600Y-61266533D01*
X159669219Y-61218914D01*
X159764457Y-61171295D01*
X159859695Y-61171295D01*
X160002552Y-61218914D01*
X160573981Y-61790343D01*
X160573981Y-61171295D01*
X136494781Y-63901486D02*
X135494781Y-63901486D01*
X135494781Y-63520533D01*
X135542400Y-63425295D01*
X135590019Y-63377676D01*
X135685257Y-63330057D01*
X135828114Y-63330057D01*
X135923352Y-63377676D01*
X135970971Y-63425295D01*
X136018590Y-63520533D01*
X136018590Y-63901486D01*
X136494781Y-62377676D02*
X136494781Y-62949105D01*
X136494781Y-62663391D02*
X135494781Y-62663391D01*
X135637638Y-62758629D01*
X135732876Y-62853867D01*
X135780495Y-62949105D01*
X135494781Y-62044343D02*
X135494781Y-61425295D01*
X135875733Y-61758629D01*
X135875733Y-61615771D01*
X135923352Y-61520533D01*
X135970971Y-61472914D01*
X136066210Y-61425295D01*
X136304305Y-61425295D01*
X136399543Y-61472914D01*
X136447162Y-61520533D01*
X136494781Y-61615771D01*
X136494781Y-61901486D01*
X136447162Y-61996724D01*
X136399543Y-62044343D01*
X138684095Y-86015581D02*
X138684095Y-86825105D01*
X138731714Y-86920343D01*
X138779333Y-86967962D01*
X138874571Y-87015581D01*
X139065048Y-87015581D01*
X139160286Y-86967962D01*
X139207905Y-86920343D01*
X139255524Y-86825105D01*
X139255524Y-86015581D01*
X140255524Y-87015581D02*
X139684095Y-87015581D01*
X139969809Y-87015581D02*
X139969809Y-86015581D01*
X139874571Y-86158438D01*
X139779333Y-86253676D01*
X139684095Y-86301295D01*
X146735895Y-89777181D02*
X146735895Y-90586705D01*
X146783514Y-90681943D01*
X146831133Y-90729562D01*
X146926371Y-90777181D01*
X147116848Y-90777181D01*
X147212086Y-90729562D01*
X147259705Y-90681943D01*
X147307324Y-90586705D01*
X147307324Y-89777181D01*
X147735895Y-89872419D02*
X147783514Y-89824800D01*
X147878752Y-89777181D01*
X148116848Y-89777181D01*
X148212086Y-89824800D01*
X148259705Y-89872419D01*
X148307324Y-89967657D01*
X148307324Y-90062895D01*
X148259705Y-90205752D01*
X147688276Y-90777181D01*
X148307324Y-90777181D01*
X160883695Y-89954981D02*
X160883695Y-90764505D01*
X160931314Y-90859743D01*
X160978933Y-90907362D01*
X161074171Y-90954981D01*
X161264648Y-90954981D01*
X161359886Y-90907362D01*
X161407505Y-90859743D01*
X161455124Y-90764505D01*
X161455124Y-89954981D01*
X161836076Y-89954981D02*
X162455124Y-89954981D01*
X162121790Y-90335933D01*
X162264648Y-90335933D01*
X162359886Y-90383552D01*
X162407505Y-90431171D01*
X162455124Y-90526410D01*
X162455124Y-90764505D01*
X162407505Y-90859743D01*
X162359886Y-90907362D01*
X162264648Y-90954981D01*
X161978933Y-90954981D01*
X161883695Y-90907362D01*
X161836076Y-90859743D01*
X175996695Y-90031181D02*
X175996695Y-90840705D01*
X176044314Y-90935943D01*
X176091933Y-90983562D01*
X176187171Y-91031181D01*
X176377648Y-91031181D01*
X176472886Y-90983562D01*
X176520505Y-90935943D01*
X176568124Y-90840705D01*
X176568124Y-90031181D01*
X177472886Y-90364514D02*
X177472886Y-91031181D01*
X177234790Y-89983562D02*
X176996695Y-90697848D01*
X177615743Y-90697848D01*
X191262095Y-90107381D02*
X191262095Y-90916905D01*
X191309714Y-91012143D01*
X191357333Y-91059762D01*
X191452571Y-91107381D01*
X191643048Y-91107381D01*
X191738286Y-91059762D01*
X191785905Y-91012143D01*
X191833524Y-90916905D01*
X191833524Y-90107381D01*
X192785905Y-90107381D02*
X192309714Y-90107381D01*
X192262095Y-90583571D01*
X192309714Y-90535952D01*
X192404952Y-90488333D01*
X192643048Y-90488333D01*
X192738286Y-90535952D01*
X192785905Y-90583571D01*
X192833524Y-90678810D01*
X192833524Y-90916905D01*
X192785905Y-91012143D01*
X192738286Y-91059762D01*
X192643048Y-91107381D01*
X192404952Y-91107381D01*
X192309714Y-91059762D01*
X192262095Y-91012143D01*
X139482534Y-89504781D02*
X139149200Y-89028590D01*
X138911105Y-89504781D02*
X138911105Y-88504781D01*
X139292058Y-88504781D01*
X139387296Y-88552400D01*
X139434915Y-88600019D01*
X139482534Y-88695257D01*
X139482534Y-88838114D01*
X139434915Y-88933352D01*
X139387296Y-88980971D01*
X139292058Y-89028590D01*
X138911105Y-89028590D01*
X140434915Y-89504781D02*
X139863486Y-89504781D01*
X140149200Y-89504781D02*
X140149200Y-88504781D01*
X140053962Y-88647638D01*
X139958724Y-88742876D01*
X139863486Y-88790495D01*
X139584134Y-93365581D02*
X139250800Y-92889390D01*
X139012705Y-93365581D02*
X139012705Y-92365581D01*
X139393658Y-92365581D01*
X139488896Y-92413200D01*
X139536515Y-92460819D01*
X139584134Y-92556057D01*
X139584134Y-92698914D01*
X139536515Y-92794152D01*
X139488896Y-92841771D01*
X139393658Y-92889390D01*
X139012705Y-92889390D01*
X139965086Y-92460819D02*
X140012705Y-92413200D01*
X140107943Y-92365581D01*
X140346039Y-92365581D01*
X140441277Y-92413200D01*
X140488896Y-92460819D01*
X140536515Y-92556057D01*
X140536515Y-92651295D01*
X140488896Y-92794152D01*
X139917467Y-93365581D01*
X140536515Y-93365581D01*
M02*
